<?xml version="1.0" encoding="UTF-8"?>
<svg id="Layer_1" data-name="Layer 1" xmlns="http://www.w3.org/2000/svg" viewBox="0 0 1418.03 1374.4">
  <defs>
    <style>
      .cls-1, .cls-2, .cls-3, .cls-4, .cls-5, .cls-6, .cls-7, .cls-8, .cls-9, .cls-10 {
        stroke: #613034;
      }

      .cls-1, .cls-2, .cls-3, .cls-6 {
        fill: none;
      }

      .cls-1, .cls-2, .cls-4, .cls-5, .cls-7, .cls-8 {
        stroke-miterlimit: 10;
      }

      .cls-1, .cls-5, .cls-8 {
        stroke-width: 35.14px;
      }

      .cls-11, .cls-12, .cls-13, .cls-14, .cls-15, .cls-16, .cls-17 {
        stroke-width: 0px;
      }

      .cls-11, .cls-14 {
        fill: #fadda1;
      }

      .cls-2, .cls-3, .cls-6, .cls-7, .cls-9, .cls-10 {
        stroke-width: 25.1px;
      }

      .cls-3, .cls-4, .cls-6, .cls-9, .cls-10 {
        stroke-linecap: round;
      }

      .cls-3, .cls-6, .cls-9, .cls-10 {
        stroke-linejoin: round;
      }

      .cls-12 {
        fill: #f7826f;
      }

      .cls-4 {
        stroke-width: 30.12px;
      }

      .cls-4, .cls-17 {
        fill: #ffb67f;
      }

      .cls-13 {
        opacity: .61;
      }

      .cls-13, .cls-5, .cls-7 {
        fill: #dd6f54;
      }

      .cls-14 {
        opacity: .27;
      }

      .cls-6 {
        opacity: .53;
      }

      .cls-8 {
        fill: #876462;
      }

      .cls-9, .cls-15 {
        fill: #fff;
      }

      .cls-16 {
        fill: #ffb67f;
      }

      .cls-10 {
        fill: #613034;
      }
    </style>
  </defs>
  <g id="calcifer">
    <path class="cls-5" d="M1116.21,827.54c-.1,5.77-.35,6.93-1.51,7.33-20.98,5.47-356.16,91.96-375.44,96.93-6.53,1.05-10.19.2-21.38.8-132.98,3.26-469.61,10.44-501.59,11.5-2.16-.05-2.36-1.31-4.52-4.47-15.96-28.76-18.87-63.15-12.5-108.73.75-5.32,1.36-11.55.35-16.47-4.17-14.56-16.77-23.69-23.69-37.55-20.98-34.94-19.98-66.01,12.45-84.13,101.1-60.09,163-147.48,155.42-268.82v-1.05c-2.66-39.31,41.26-11.14,60.39-2.61,29.77,13.45,60.94,3.31,60.34-46.28-1.71-144.47,28.51-220.83,115.01-237.89,7.83-1.76,32.18-.25,38.2,4.47,52.36,41.97-63.3,215.35,30.72,261.79,76.5,25.3,155.11-14.36,241.41-91.56,17.57-16.11,50.2-33.98,70.43-19.38,16.21,13.96,19.68,47.29,10.69,67.82-18.47,55.92-24.3,104.21-19.18,146.23,1.25,8.73,7.38,15.36,14.26,21.08,85.49,73.79,138.5,166.11,149.99,274.34.35,8.08,0,19.58.15,26.66Z"/>
    <path class="cls-17" d="M1053.11,850.78l-.15.1c-103.26,26.61-299.09,77.16-313.69,80.92-6.53,1.05-10.19.2-21.38.8-80.32,1.96-234.98,5.37-351.89,8.03l-.2-.05c-42.77-20.93-70.58-67.07-85.84-134.43-3.26-62.1,16.21-86.89,52.11-84.69-3.51-77.51,18.12-144.42,110.29-181.72,31.68-60.14,37.15-110.49,82.88-129.61,41.77-13.5,57.78-2.06,62.15,20.73l-7.38,44.38c19.78,17.52,42.02,30.32,69.53,32.58,70.88,8.13,137.95-8.38,198.99-63.65,30.27-20.58,61.09,9.94,59.49,50.35,14.76,76.65,32.23,118.57,50.85,145.28,68.72,50.1,112.24,113.85,94.27,210.99Z"/>
    <path class="cls-8" d="M1373.88,1164.02c-24.95,45.27-64.46,45.98-99.14,54.06-293.76,63.15-594.61,109.79-902.93,138.75h-192.86c-73.14-9.64-130.02-55.07-160.39-158.58-7.53-96.08,28.51-160.24,82.88-210.89,22.14-20.38,59.28-35.24,114.86-43.27,12.65-.45,73.04-1.81,149.69-3.46,116.91-2.66,271.58-6.07,351.89-8.03,11.19-.6,27.29,3.27,57.74-1.94,36.99-10.92,174.08-53.18,277.34-79.79,33.08-8.58,56.67-14.66,61.74-16.01,50.9-11.35,104.21-15.31,160.03-11.5,14.31,6.42,27.26,13.95,38.9,22.49,44.18,32.38,70.03,79.36,83.63,136.14,7.78,66.71,1.81,128.11-23.39,182.02Z"/>
    <path class="cls-13" d="M1313.65,845.86c3.68,20.68-5.77,30.8-31.27,28.01-45.8-5.79-105.67-10.88-122.39,8.63-41.27,43.16-96.54,73.84-178.16,81.02-2.17,37.78-20.48,69.29-80.72,58.98-22.22-3.62-48.01-27.01-72.3-44.21-37.97,14.43-89.25,17.58-129.31,6.86-8.83,45.4-36.59,58.69-87.03,50.45-22.81-4.94-45.33-18.28-67.77-33.83-80.72,11.94-149,15.55-199.99,7.63-30.08-6.54-60.36-18.02-90.71-31.12,33.51,17.6,46.14,33.53,33.88,47.49-22.07,5.23-44.31.98-66.66-9.79-40.63-13.76-75.9-14.97-103.81,1.05-18.23,8.2-21.2-15.37-15.96-29.67,22.14-20.38,59.28-35.24,114.86-43.27,12.65-.45,73.04-1.81,149.69-3.46,116.91-2.66,271.58-6.07,351.89-8.03,11.19-.6,14.86.25,21.38-.8,14.61-3.76,210.43-54.32,313.69-80.92,33.08-8.58,56.67-14.66,61.74-16.01,50.9-11.35,104.21-15.31,160.03-11.5,14.31,6.42,27.26,13.95,38.9,22.49Z"/>
    <path class="cls-1" d="M1373.88,1164.02c-24.95,45.27-64.46,45.98-99.14,54.06-293.76,63.15-594.61,109.79-902.93,138.75h-192.86c-73.14-9.64-130.02-55.07-160.39-158.58-7.53-96.08,28.51-160.24,82.88-210.89,22.14-20.38,59.28-35.24,114.86-43.27,12.65-.45,73.04-1.81,149.69-3.46,116.91-2.66,271.58-6.07,351.89-8.03,11.19-.6,27.29,3.27,57.74-1.94,36.99-10.92,174.08-53.18,277.34-79.79,33.08-8.58,56.67-14.66,61.74-16.01,50.9-11.35,104.21-15.31,160.03-11.5,14.31,6.42,27.26,13.95,38.9,22.49,44.18,32.38,70.03,79.36,83.63,136.14,7.78,66.71,1.81,128.11-23.39,182.02Z"/>
    <path class="cls-4" d="M463.16,912.87c62.33,34.7,70.85,49.66,119.96,62.62,31.43,6.46,53.49,7.68,54.26-21.7-2.71-31.69-34.02-43.73-87.11-71.28"/>
    <path class="cls-4" d="M917.48,830.51c14.21,35.43,36.15,68.76,30.09,102.3-3.73,26.09-25.73,31.08-41.57,23.32-27.96-14.26-47.04-52.77-53.89-99.41"/>
    <path class="cls-7" d="M728.47,762.87c30.78,1.31,52.76-12.99,77.69-22.42,19.62-4.42,34-3.9,39.57,4.97,8.42,27.34-2.75,46.82-26.96,61.08-43.47,31.32-90.98,36.01-141.51,20.75-26.33-7.25-44.41-19.01-50.29-37.41-4-13.18,2.29-20.81,17.91-23.39,11.61-3.4,32.27-5.57,83.59-3.57Z"/>
    <path class="cls-14" d="M146.5,1032.83c61.45-.96,102.7,34.93,117.33,119.36,19.51,103.91,2.81,162.45-58.67,164.87-58.13,6.43-107.78-15.6-132.5-121.21-5.88-73.52,12.23-131.96,73.84-163.02Z"/>
    <g>
      <path class="cls-6" d="M1071.29,978.3s299.89-19.94,313.11-37.66"/>
      <path class="cls-6" d="M409.66,1257.17s605.86-50.16,974.75-119.41"/>
      <path class="cls-6" d="M249.66,1063.21s248.27-7.01,257.23-13.36"/>
      <path class="cls-6" d="M307.54,1158.44c0-8.46,438.51-82.84,572.57-65.17,24,5.82,35.1,16.91,35.38,32.43,2.45,13.44-3.06,25.98-24.21,32.74-122.91,32.01-316.13,43.43-346.33,34.45-4.29-6.83,8.35-14.36,54-23.28"/>
      <path class="cls-6" d="M1314.41,1039.37s76.79-.05,86.05-12.48"/>
      <path class="cls-3" d="M204.01,1006.98c107.84,77.76,132.57,169.44,60.94,277.28-34.73,43.13-114.28,34.55-147.27-19.3-20.54-38.54-24.28-75.57-18.28-111.73,8.56-29.03,25.56-49.33,56.88-54.85,24.21-7.83,19.09,37.31,16.25,99.07,14.5.92,19.9,7.12,14.22,19.77-12.26,12.01-22.41,9.66-31.49,0"/>
    </g>
    <circle class="cls-7" cx="711.86" cy="50.5" r="37.95"/>
    <circle class="cls-7" cx="1051.07" cy="221.98" r="28.68"/>
    <path class="cls-12" d="M402.48,780.56c2.33-16.82,15.63-27.46,43.05-30.13,29.29-1.91,47.4,4.2,45.92,24.39-.16,28.11-19.93,33.03-44.48,32.29-32.08-2.42-44.61-12.13-44.48-26.55Z"/>
    <path class="cls-12" d="M944.38,715.97c9.58,27,31.86,37.92,70.25,28.46,13.41-6.42,23.49-14,24.22-24.83,4.38-34.97-13.69-47.36-41.79-49.66l-52.69,46.03Z"/>
    <g>
      <ellipse class="cls-9" cx="480.07" cy="674.75" rx="70.41" ry="73.57"/>
      <circle class="cls-9" cx="936.62" cy="639.77" r="63.87"/>
      <circle class="cls-10" cx="506.53" cy="672.06" r="10.24"/>
      <circle class="cls-10" cx="918.23" cy="644.92" r="10.24"/>
    </g>
    <path class="cls-11" d="M691.73,686.79c1.14-12.61,10.34-21.32,34.32-22.88,19.5.87,28.35,4.73,27.04,11.44.55,18.59-10.05,24.75-26,24.96-19.97,1.7-32.66-2.13-35.36-13.52Z"/>
    <path class="cls-15" d="M710.99,770.87c-2.01,7.16,3.85,19.23,13.41,22.28,7.62,1.75,14.7-.33,21.05-7.64,2.25-8.1,2.55-13.63-.56-14.64-11.56.97-23.11-4.56-33.9,0Z"/>
    <path class="cls-15" d="M748.99,771.23c9.94-7.01,20.52-9.93,31.74-8.79,1.6,3.9,2.21,7.7.11,11.22-6.77,10.97-23.15,15.25-28.42,10.27-2.9-4.55-4.53-8.87-3.43-12.7Z"/>
    <path class="cls-16" d="M812.96,810.52c-40.86,27.01-85.14,31.12-132.07,17.77,0,0,91.81-48.24,132.07-17.77Z"/>
    <path class="cls-2" d="M818.78,806.5c-1.96,1.41-3.87,2.76-5.82,4.02-40.86,27.01-85.14,31.12-132.07,17.77l-3.61-1.05c-26.35-7.23-44.43-18.97-50.3-37.4-4.02-13.2,2.31-20.83,17.92-23.39,11.6-3.41,32.28-5.57,83.58-3.56,30.77,1.31,52.76-13,77.71-22.44,19.58-4.42,33.98-3.92,39.56,4.97,8.38,27.36-2.76,46.84-26.96,61.09Z"/>
  </g>
</svg>