<?xml version="1.0" encoding="utf-8"?>
<!-- Generator: Adobe Illustrator 28.4.1, SVG Export Plug-In . SVG Version: 6.00 Build 0)  -->
<svg version="1.1" id="Layer_1" xmlns="http://www.w3.org/2000/svg" xmlns:xlink="http://www.w3.org/1999/xlink" x="0px" y="0px"
	 viewBox="0 0 2048 2048" style="enable-background:new 0 0 2048 2048;" xml:space="preserve">
<style type="text/css">
	.st0{fill:#FFFFFF;}
	.st1{fill:#F8A509;}
	.st2{fill:#00748B;}
	.st3{fill:#808080;}
</style>
<path class="st0" d="M1821.08,1635.67c0,53.56-20.8,103.87-58.58,141.65c-37.85,37.84-88.15,58.68-141.66,58.68
	c-53.51,0-103.81-20.84-141.66-58.68l-103.53-103.54c-51.22,27.84-105.63,49.52-161.88,64.47C1152.02,1754.67,1088,1763,1023.5,1763
	c-99.69,0-196.41-19.53-287.46-58.04c-87.94-37.2-166.92-90.44-234.74-158.26c-67.82-67.82-121.06-146.79-158.26-234.74
	C304.53,1220.91,285,1124.19,285,1024.5s19.53-196.41,58.04-287.46c37.2-87.94,90.44-166.92,158.26-234.74
	s146.8-121.06,234.74-158.26C827.09,305.53,923.81,286,1023.5,286s196.41,19.53,287.46,58.04c87.95,37.2,166.92,90.44,234.74,158.26
	c67.82,67.82,121.06,146.8,158.26,234.74c38.51,91.05,58.04,187.77,58.04,287.46c0,130.24-34.25,257.86-99.15,369.86l99.65,99.65
	C1800.28,1531.79,1821.08,1582.1,1821.08,1635.67z"/>
<path class="st1" d="M1574.01,1403.55l6.23-9.36c12.22-18.37,23.66-37.59,34-57.13l5.26-9.94l-19.88-10.52l-5.12,9.68
	c-2.55,4.82-5.16,9.61-7.83,14.37c-0.01,0.02-0.02,0.03-0.03,0.05c-0.03,0.05-0.06,0.11-0.09,0.16c-0.01,0.02-0.02,0.04-0.04,0.06
	c-0.03,0.05-0.05,0.1-0.08,0.15c-0.02,0.03-0.03,0.06-0.05,0.09c-0.02,0.04-0.05,0.09-0.07,0.13c-0.02,0.03-0.04,0.06-0.05,0.09
	c-0.02,0.04-0.04,0.08-0.06,0.11c-0.02,0.04-0.04,0.07-0.06,0.11c-0.02,0.04-0.04,0.07-0.06,0.11c-0.02,0.04-0.04,0.07-0.06,0.1
	c-0.02,0.04-0.04,0.07-0.06,0.11c-0.02,0.03-0.04,0.07-0.06,0.1c-0.02,0.04-0.04,0.08-0.06,0.11c-0.02,0.04-0.04,0.07-0.06,0.11
	c-0.02,0.03-0.04,0.06-0.05,0.09c-0.02,0.04-0.05,0.09-0.07,0.13c-0.02,0.03-0.03,0.05-0.05,0.08c-0.03,0.04-0.05,0.09-0.08,0.13
	c-0.01,0.03-0.03,0.05-0.04,0.08c-0.03,0.05-0.05,0.09-0.08,0.14c-0.02,0.03-0.03,0.05-0.04,0.08c-0.03,0.05-0.05,0.1-0.08,0.14
	c-0.01,0.02-0.02,0.04-0.03,0.06c-0.03,0.05-0.06,0.1-0.09,0.16c-0.01,0.02-0.02,0.04-0.03,0.05c-0.03,0.05-0.06,0.11-0.09,0.16
	c-0.01,0.01-0.02,0.03-0.02,0.04c-0.03,0.06-0.07,0.11-0.1,0.17c-0.01,0.01-0.02,0.03-0.02,0.04c-0.04,0.06-0.07,0.12-0.1,0.18l0,0
	c-7.32,12.85-15.07,25.43-23.25,37.73l-6.23,9.36L1574.01,1403.55L1574.01,1403.55z M1638.11,1287.26l4.25-10.41
	c8.37-20.5,15.78-41.6,22.02-62.72l3.19-10.78l-21.56-6.38l-3.19,10.78c-2.17,7.33-4.47,14.63-6.91,21.89l0,0
	c-0.05,0.16-0.11,0.32-0.16,0.47l0,0c-0.03,0.08-0.05,0.16-0.08,0.24l0,0c-0.03,0.08-0.05,0.16-0.08,0.23l0,0.01
	c-0.03,0.08-0.05,0.16-0.08,0.23l0,0c-0.03,0.08-0.05,0.15-0.08,0.23l0,0.01c-0.03,0.08-0.05,0.16-0.08,0.24l0,0
	c-0.03,0.08-0.05,0.15-0.08,0.23c0,0.01,0,0.01-0.01,0.02c-0.02,0.07-0.05,0.15-0.07,0.22c0,0,0,0.01-0.01,0.02
	c-0.02,0.07-0.05,0.15-0.07,0.22c0,0.01-0.01,0.01-0.01,0.02c-0.03,0.07-0.05,0.15-0.07,0.22c0,0.01,0,0.01-0.01,0.02
	c-0.03,0.07-0.05,0.15-0.07,0.22c0,0.01,0,0.01-0.01,0.02c-0.03,0.08-0.05,0.15-0.08,0.23l0,0.01c-0.03,0.08-0.05,0.15-0.08,0.23
	c0,0,0,0.01,0,0.01c-0.03,0.08-0.05,0.15-0.08,0.23l0,0.01c-0.03,0.08-0.05,0.15-0.08,0.23c0,0.01,0,0.01,0,0.01
	c-0.03,0.08-0.05,0.15-0.08,0.23l0,0.01c-0.03,0.08-0.05,0.16-0.08,0.24l0,0c-0.03,0.08-0.05,0.16-0.08,0.24l0,0
	c-0.03,0.08-0.05,0.16-0.08,0.23l0,0c-0.05,0.16-0.11,0.31-0.16,0.47l0,0c-0.03,0.08-0.05,0.16-0.08,0.23l0,0.01
	c-0.03,0.08-0.05,0.15-0.08,0.23c0,0,0,0.01,0,0.01c-0.03,0.08-0.05,0.15-0.08,0.23l0,0.01c-0.03,0.08-0.05,0.15-0.08,0.23
	c0,0.01,0,0.01,0,0.01c-0.03,0.08-0.05,0.15-0.08,0.23l0,0.01c-0.03,0.08-0.05,0.15-0.08,0.22c0,0.01,0,0.01,0,0.01
	c-0.03,0.08-0.05,0.15-0.08,0.23l0,0.01c-0.03,0.08-0.05,0.15-0.08,0.23l0,0.01c-0.03,0.08-0.05,0.16-0.08,0.24l0,0
	c-0.03,0.08-0.05,0.16-0.08,0.23l0,0c-0.06,0.16-0.11,0.31-0.16,0.47l0,0c-0.05,0.16-0.11,0.31-0.17,0.47l0,0
	c-3.55,10.12-7.36,20.17-11.43,30.14l-4.25,10.41L1638.11,1287.26L1638.11,1287.26z M1677.91,1160.56l2.09-11.05
	c4.09-21.64,7.13-43.79,9.05-65.85l0.97-11.2l-22.4-1.95l-0.95,10.93c-0.67,7.79-1.49,15.55-2.44,23.28c0,0,0,0,0,0
	c-0.01,0.08-0.02,0.17-0.03,0.24c0,0,0,0,0,0.01c-0.01,0.08-0.02,0.16-0.03,0.24c0,0.01,0,0.01,0,0.02
	c-0.01,0.08-0.02,0.15-0.03,0.23c0,0.01,0,0.02,0,0.03c-0.01,0.07-0.02,0.15-0.03,0.22c0,0.02,0,0.03-0.01,0.05
	c-0.01,0.07-0.02,0.13-0.02,0.2c0,0.02,0,0.04-0.01,0.05c-0.01,0.06-0.02,0.13-0.02,0.19c0,0.02-0.01,0.05-0.01,0.07
	c-0.01,0.06-0.01,0.12-0.02,0.17c0,0.03-0.01,0.05-0.01,0.08c-0.01,0.06-0.01,0.11-0.02,0.17c0,0.03-0.01,0.06-0.01,0.09
	c-0.01,0.05-0.01,0.1-0.02,0.16c0,0.03-0.01,0.06-0.01,0.1c-0.01,0.05-0.01,0.09-0.02,0.15c0,0.04-0.01,0.08-0.01,0.11
	c-0.01,0.05-0.01,0.09-0.02,0.14c0,0.04-0.01,0.07-0.01,0.11c-0.01,0.05-0.01,0.09-0.02,0.14c-0.01,0.04-0.01,0.08-0.02,0.12
	c-0.01,0.04-0.01,0.08-0.02,0.12c-0.01,0.04-0.01,0.09-0.02,0.13c-0.01,0.04-0.01,0.08-0.02,0.12c-0.01,0.05-0.01,0.09-0.02,0.14
	c0,0.04-0.01,0.07-0.01,0.1c-0.01,0.05-0.01,0.1-0.02,0.15c0,0.03-0.01,0.07-0.01,0.1c-0.01,0.06-0.01,0.11-0.02,0.17
	c0,0.03-0.01,0.05-0.01,0.08c-0.01,0.06-0.02,0.12-0.02,0.17c0,0.03-0.01,0.05-0.01,0.08c-0.01,0.06-0.02,0.12-0.02,0.18
	c0,0.03-0.01,0.04-0.01,0.07c-0.01,0.06-0.02,0.12-0.02,0.18c0,0.02-0.01,0.04-0.01,0.06c-0.01,0.07-0.02,0.13-0.03,0.2
	c0,0.02,0,0.03-0.01,0.04c-0.01,0.07-0.02,0.14-0.03,0.21c0,0.02,0,0.02-0.01,0.04c-0.01,0.08-0.02,0.15-0.03,0.22
	c0,0.01,0,0.01,0,0.02c-0.01,0.08-0.02,0.15-0.03,0.23c0,0.01,0,0.01,0,0.02c-0.01,0.08-0.02,0.16-0.03,0.24l0,0.01
	c-1.54,11.56-3.38,23.05-5.54,34.48l-2.09,11.05L1677.91,1160.56L1677.91,1160.56z M1691.67,1028.52l-0.13-11.24
	c-0.25-22.11-1.6-44.42-4.02-66.32l-1.23-11.18l-22.35,2.47l1.23,11.15c0.04,0.33,0.08,0.68,0.11,1.02c0,0.01,0,0.01,0,0.02
	c0.03,0.23,0.05,0.47,0.08,0.71c0,0.02,0,0.04,0.01,0.06c0.02,0.22,0.05,0.44,0.07,0.66c0,0.03,0.01,0.07,0.01,0.1
	c0.01,0.07,0.01,0.13,0.02,0.19c0,0.03,0.01,0.06,0.01,0.09c0.01,0.11,0.02,0.22,0.04,0.34c0,0.04,0.01,0.09,0.01,0.13
	c0.01,0.05,0.01,0.11,0.02,0.17c0.01,0.06,0.01,0.12,0.02,0.18c0.01,0.08,0.02,0.15,0.02,0.22c0.01,0.06,0.01,0.12,0.02,0.18
	c0,0.05,0.01,0.09,0.01,0.14c0.01,0.07,0.01,0.14,0.02,0.22c0.01,0.06,0.01,0.1,0.02,0.17c0.01,0.07,0.02,0.15,0.02,0.22
	c0,0.05,0.01,0.08,0.01,0.12c0.01,0.08,0.02,0.15,0.02,0.23c0,0.03,0.01,0.07,0.01,0.1c0.01,0.1,0.02,0.2,0.03,0.29
	c0,0.04,0.01,0.06,0.01,0.1c0.01,0.08,0.02,0.17,0.03,0.25c0,0.02,0,0.04,0.01,0.07c0.01,0.11,0.02,0.21,0.03,0.32
	c0,0.02,0.01,0.05,0.01,0.07c0.01,0.09,0.02,0.18,0.03,0.27c0,0.02,0,0.04,0.01,0.07c0.01,0.11,0.02,0.22,0.03,0.33
	c0,0.01,0,0.03,0,0.03c0.01,0.1,0.02,0.21,0.03,0.32c0,0.02,0,0.02,0,0.04c0.02,0.23,0.05,0.47,0.07,0.7l0,0.02
	c0.02,0.24,0.05,0.48,0.07,0.72l0,0.01c0.02,0.24,0.05,0.48,0.07,0.72l0,0c1.56,16.37,2.51,32.85,2.82,49.4l0,0.01
	c0,0.24,0.01,0.47,0.01,0.71c0,0.02,0,0.02,0,0.04c0,0.23,0.01,0.46,0.01,0.7c0,0.02,0,0.03,0,0.05c0,0.11,0,0.23,0.01,0.34v0
	c0,0.11,0,0.23,0.01,0.34c0,0.02,0,0.05,0,0.07c0,0.1,0,0.19,0,0.29c0,0.02,0,0.03,0,0.05c0,0.11,0,0.21,0,0.32
	c0,0.02,0,0.07,0,0.09c0,0.08,0,0.16,0,0.25c0,0.03,0,0.07,0,0.1c0,0.1,0,0.2,0,0.3c0,0.03,0,0.08,0,0.11c0,0.07,0,0.14,0,0.22
	c0,0.04,0,0.08,0,0.12c0,0.1,0,0.2,0,0.3c0,0.04,0,0.08,0,0.12c0,0.07,0,0.13,0,0.2c0,0.05,0,0.09,0,0.15c0,0.08,0,0.16,0,0.24
	c0,0.03,0,0.06,0,0.09l0.13,11.2L1691.67,1028.52L1691.67,1028.52z M1679.3,896.34l-2.34-11c-4.6-21.61-10.34-43.23-17.07-64.25
	l-3.43-10.71l-21.42,6.86l3.43,10.71c4.86,15.18,9.15,30.54,12.87,46.06l0,0c0.06,0.23,0.11,0.46,0.17,0.69c0,0.01,0,0.01,0.01,0.03
	c0.05,0.22,0.11,0.45,0.16,0.67c0,0.01,0.01,0.03,0.01,0.05c0.03,0.11,0.05,0.22,0.08,0.33l0,0c0.03,0.11,0.05,0.22,0.08,0.33
	c0.01,0.02,0.01,0.03,0.01,0.06c0.02,0.09,0.04,0.19,0.07,0.28c0.01,0.02,0.01,0.04,0.01,0.06c0.02,0.1,0.05,0.21,0.07,0.31
	c0.01,0.03,0.01,0.05,0.02,0.08c0.02,0.08,0.04,0.16,0.06,0.24c0.01,0.04,0.01,0.06,0.02,0.09c0.02,0.1,0.05,0.2,0.07,0.3
	c0.01,0.03,0.01,0.05,0.02,0.08c0.02,0.08,0.04,0.16,0.05,0.23c0.01,0.04,0.02,0.08,0.03,0.11c0.02,0.08,0.04,0.16,0.06,0.24
	c0.01,0.04,0.02,0.08,0.03,0.12c0.02,0.08,0.03,0.15,0.05,0.22c0.01,0.04,0.02,0.1,0.03,0.14c0.01,0.06,0.03,0.11,0.04,0.17
	c0.02,0.07,0.03,0.14,0.05,0.22c0.01,0.06,0.03,0.12,0.04,0.18c0.01,0.06,0.03,0.11,0.04,0.17c0.01,0.04,0.02,0.08,0.03,0.12
	c0.05,0.21,0.09,0.41,0.14,0.62c0.01,0.03,0.02,0.07,0.02,0.1c0.05,0.22,0.1,0.44,0.15,0.66c0,0.01,0.01,0.03,0.01,0.04
	c0.02,0.08,0.03,0.15,0.05,0.23c0,0,0,0.01,0,0.01c0.69,3.04,1.36,6.07,2.01,9.12l2.28,10.7L1679.3,896.34L1679.3,896.34z
	 M1640.96,769.19l-4.48-10.31c-8.8-20.24-18.73-40.28-29.52-59.56l-5.49-9.81l-19.62,10.98l5.34,9.55c2.01,3.6,3.99,7.21,5.94,10.84
	c0,0.01,0.01,0.01,0.01,0.02c0.15,0.29,0.31,0.58,0.46,0.87c0.01,0.01,0.01,0.02,0.02,0.03c0.11,0.21,0.22,0.41,0.33,0.62
	c0.01,0.02,0.02,0.04,0.03,0.05c0.1,0.19,0.21,0.39,0.31,0.59c0.02,0.03,0.03,0.06,0.05,0.09c0.03,0.06,0.06,0.11,0.09,0.17
	c0.01,0.02,0.02,0.03,0.02,0.05c0.06,0.11,0.12,0.23,0.18,0.34c0.02,0.03,0.04,0.07,0.05,0.1c0.03,0.05,0.06,0.11,0.09,0.16
	c0.02,0.04,0.04,0.08,0.07,0.12c0.05,0.09,0.08,0.16,0.13,0.25c0.02,0.05,0.05,0.09,0.07,0.14c0.03,0.05,0.05,0.09,0.08,0.14
	c0.02,0.05,0.05,0.09,0.07,0.14c0.04,0.07,0.08,0.15,0.12,0.22c0.03,0.05,0.05,0.1,0.08,0.15c0.02,0.05,0.05,0.09,0.07,0.13
	c0.03,0.05,0.06,0.11,0.08,0.16c0.03,0.05,0.05,0.1,0.08,0.15c0.04,0.07,0.07,0.14,0.11,0.21c0.02,0.04,0.05,0.09,0.07,0.13
	c0.03,0.05,0.05,0.1,0.08,0.15c0.02,0.04,0.04,0.08,0.07,0.12c0.04,0.08,0.09,0.17,0.13,0.25c0.02,0.04,0.04,0.08,0.06,0.12
	c0.03,0.06,0.06,0.11,0.09,0.17c0.02,0.04,0.04,0.08,0.06,0.12c0.04,0.08,0.09,0.17,0.13,0.25c0.02,0.03,0.04,0.08,0.06,0.11
	c0.03,0.06,0.06,0.11,0.09,0.17c0.02,0.05,0.04,0.08,0.07,0.13c0.04,0.07,0.07,0.14,0.11,0.21c0.02,0.04,0.04,0.07,0.06,0.11
	c0.04,0.07,0.07,0.14,0.11,0.21c0.02,0.04,0.04,0.07,0.06,0.11c0.03,0.07,0.07,0.13,0.1,0.2c0.01,0.03,0.03,0.06,0.04,0.09
	c0.04,0.09,0.09,0.17,0.13,0.26c0.02,0.03,0.04,0.08,0.06,0.11c0.03,0.06,0.07,0.13,0.1,0.19c0.01,0.03,0.04,0.07,0.05,0.09
	c0.05,0.09,0.09,0.17,0.14,0.26c0.02,0.03,0.04,0.07,0.05,0.1c0.03,0.07,0.07,0.13,0.1,0.19c0.01,0.03,0.03,0.06,0.05,0.09
	c0.05,0.09,0.09,0.18,0.14,0.27c0.01,0.03,0.03,0.06,0.05,0.09c0.03,0.07,0.07,0.13,0.1,0.2c0.02,0.03,0.03,0.06,0.05,0.1
	c0.05,0.09,0.09,0.18,0.14,0.27c0.01,0.03,0.02,0.04,0.04,0.07c0.04,0.07,0.07,0.14,0.11,0.21c0.02,0.03,0.04,0.07,0.05,0.1
	c0.04,0.08,0.08,0.15,0.12,0.23c0.01,0.02,0.03,0.05,0.04,0.07c0.04,0.09,0.09,0.17,0.13,0.26c0.02,0.03,0.03,0.06,0.05,0.09
	c0.04,0.07,0.07,0.14,0.11,0.21c0.01,0.03,0.03,0.05,0.04,0.08c0.04,0.09,0.09,0.18,0.14,0.26c0.02,0.03,0.04,0.07,0.05,0.11
	c0.03,0.06,0.06,0.12,0.09,0.19c0.02,0.04,0.03,0.07,0.06,0.11c0.04,0.09,0.09,0.17,0.13,0.26c0.02,0.03,0.03,0.07,0.05,0.1
	c0.03,0.06,0.06,0.13,0.1,0.19c0.02,0.03,0.04,0.07,0.05,0.1c0.05,0.09,0.09,0.18,0.13,0.26c0.01,0.03,0.03,0.06,0.05,0.09
	c0.03,0.07,0.07,0.13,0.1,0.2c0.02,0.03,0.04,0.07,0.05,0.11c0.04,0.08,0.08,0.17,0.13,0.25c0.01,0.03,0.03,0.05,0.04,0.08
	c0.04,0.07,0.07,0.15,0.11,0.22c0.02,0.04,0.03,0.07,0.05,0.11c0.04,0.07,0.07,0.14,0.11,0.22c0.01,0.03,0.02,0.04,0.03,0.07
	c0.04,0.09,0.09,0.18,0.13,0.27c0.02,0.03,0.04,0.08,0.05,0.11c0.03,0.06,0.06,0.12,0.09,0.19c0.02,0.03,0.03,0.07,0.05,0.1
	c0.04,0.09,0.09,0.17,0.13,0.26c0.02,0.03,0.04,0.07,0.05,0.11c0.03,0.06,0.06,0.12,0.09,0.18c0.02,0.04,0.03,0.07,0.05,0.11
	c0.04,0.09,0.09,0.17,0.13,0.26c0.02,0.04,0.04,0.07,0.06,0.11c0.03,0.06,0.06,0.12,0.09,0.18c0.02,0.03,0.04,0.08,0.06,0.12
	c0.04,0.08,0.08,0.15,0.11,0.23c0.02,0.04,0.05,0.1,0.07,0.14c0.03,0.06,0.06,0.11,0.09,0.17c0.02,0.04,0.05,0.09,0.07,0.13
	c0.03,0.05,0.06,0.11,0.08,0.17c0.03,0.06,0.06,0.12,0.09,0.19c0.03,0.06,0.06,0.12,0.09,0.18c0.02,0.04,0.04,0.09,0.06,0.13
	c0.03,0.06,0.06,0.11,0.09,0.17c0.02,0.03,0.04,0.08,0.06,0.11c0.04,0.08,0.08,0.17,0.12,0.25c0.02,0.04,0.04,0.08,0.06,0.12
	c0.03,0.05,0.05,0.11,0.08,0.16c0.02,0.04,0.04,0.09,0.06,0.13c0.04,0.08,0.08,0.16,0.12,0.24c0.02,0.05,0.05,0.09,0.07,0.14
	c0.02,0.05,0.05,0.09,0.07,0.14c0.02,0.05,0.05,0.1,0.07,0.15c0.02,0.05,0.05,0.1,0.07,0.15c0.04,0.08,0.08,0.16,0.12,0.24
	c0.02,0.04,0.04,0.08,0.06,0.12c0.02,0.05,0.06,0.11,0.08,0.16c0.02,0.04,0.04,0.07,0.06,0.11c0.05,0.1,0.09,0.19,0.14,0.28
	c0.02,0.04,0.03,0.07,0.05,0.1c0.03,0.05,0.06,0.12,0.08,0.17c0.01,0.03,0.03,0.06,0.05,0.09c0.05,0.11,0.1,0.21,0.16,0.32
	c0.01,0.02,0.03,0.05,0.04,0.08c0.03,0.06,0.06,0.12,0.09,0.18c0.01,0.03,0.03,0.06,0.04,0.09c0.06,0.12,0.12,0.25,0.18,0.37
	c0.01,0.01,0.01,0.02,0.01,0.03c0.03,0.06,0.06,0.13,0.09,0.19c0.01,0.02,0.02,0.05,0.03,0.07c0.1,0.2,0.2,0.41,0.3,0.61
	c0.01,0.02,0.02,0.04,0.03,0.06c0.1,0.21,0.2,0.41,0.3,0.62c0.01,0.01,0.01,0.03,0.02,0.04c0.03,0.07,0.07,0.14,0.1,0.2
	c0.01,0.01,0.01,0.02,0.02,0.03c0.07,0.14,0.14,0.28,0.21,0.42c0,0,0,0,0,0c0.04,0.08,0.07,0.14,0.11,0.22
	c0,0.01,0.01,0.01,0.01,0.02c0.11,0.22,0.21,0.44,0.32,0.66c0,0.01,0.01,0.01,0.01,0.02c0.11,0.22,0.21,0.44,0.32,0.66
	c0,0,0,0.01,0,0.01c3.47,7.24,6.81,14.54,10,21.89l4.38,10.07L1640.96,769.19L1640.96,769.19z M1578.09,652.24l-6.43-9.22
	c-12.67-18.17-26.35-35.85-40.65-52.56l-7.31-8.54l-17.08,14.62l7.31,8.54c13.88,16.21,26.98,33.15,39.29,50.8l6.43,9.22
	L1578.09,652.24L1578.09,652.24z M1477.89,566.22l15.53-16.26l-8.13-7.77c-15.94-15.22-32.86-29.84-50.3-43.44l-8.87-6.92
	l-13.83,17.73l8.64,6.74c6.7,5.22,13.27,10.55,19.74,16.02c0,0,0,0,0.01,0.01c0.06,0.05,0.12,0.1,0.18,0.15c0,0,0.01,0.01,0.01,0.01
	c0.06,0.05,0.12,0.1,0.18,0.15c0.01,0.01,0.01,0.01,0.02,0.01c0.06,0.05,0.11,0.1,0.17,0.14c0.01,0.01,0.02,0.01,0.02,0.02
	c0.05,0.04,0.1,0.09,0.15,0.13c0.02,0.01,0.03,0.03,0.05,0.04c0.05,0.04,0.09,0.08,0.14,0.12c0.02,0.01,0.03,0.03,0.05,0.04
	c0.05,0.04,0.09,0.08,0.14,0.12c0.02,0.02,0.04,0.03,0.06,0.05c0.05,0.04,0.09,0.07,0.14,0.12c0.02,0.02,0.04,0.03,0.06,0.05
	c0.05,0.04,0.08,0.07,0.13,0.11c0.02,0.02,0.05,0.04,0.07,0.06c0.04,0.04,0.08,0.07,0.13,0.11c0.02,0.02,0.04,0.04,0.07,0.06
	c0.04,0.04,0.08,0.07,0.13,0.11c0.02,0.02,0.05,0.04,0.07,0.06c0.05,0.04,0.08,0.07,0.13,0.11c0.02,0.02,0.05,0.04,0.07,0.06
	c0.04,0.03,0.08,0.06,0.11,0.1c0.03,0.03,0.06,0.05,0.1,0.08c0.03,0.03,0.07,0.06,0.1,0.09c0.03,0.03,0.06,0.05,0.09,0.08
	c0.03,0.03,0.06,0.06,0.1,0.08c0.03,0.03,0.07,0.06,0.1,0.09c0.03,0.02,0.07,0.06,0.1,0.08c0.04,0.03,0.07,0.06,0.11,0.09
	c0.03,0.02,0.06,0.05,0.09,0.07c0.04,0.03,0.08,0.07,0.11,0.1c0.03,0.02,0.05,0.05,0.08,0.07c0.04,0.04,0.08,0.07,0.13,0.11
	c0.02,0.02,0.05,0.04,0.07,0.06c0.2,0.17,0.39,0.34,0.59,0.5c0.01,0.01,0.02,0.02,0.03,0.03c0.05,0.05,0.11,0.09,0.16,0.14
	c0.01,0.01,0.03,0.03,0.04,0.04c0.05,0.04,0.1,0.08,0.15,0.13c0.02,0.02,0.04,0.03,0.06,0.05c0.05,0.04,0.09,0.08,0.14,0.12
	c0.02,0.01,0.03,0.03,0.05,0.04c0.05,0.04,0.1,0.08,0.14,0.12c0.02,0.01,0.04,0.04,0.06,0.05c0.05,0.04,0.09,0.08,0.14,0.12
	c0.02,0.01,0.04,0.04,0.06,0.05c0.05,0.04,0.09,0.08,0.14,0.12c0.02,0.02,0.04,0.03,0.06,0.05c0.05,0.04,0.09,0.08,0.14,0.12
	c0.02,0.02,0.03,0.03,0.05,0.04c0.05,0.04,0.09,0.08,0.14,0.12c0.02,0.02,0.03,0.03,0.05,0.05c0.05,0.04,0.09,0.08,0.14,0.12
	c0.02,0.01,0.04,0.03,0.05,0.05c0.05,0.04,0.09,0.08,0.14,0.12c0.02,0.01,0.04,0.03,0.05,0.05c0.05,0.04,0.1,0.08,0.15,0.13
	c0.02,0.01,0.03,0.03,0.05,0.04c0.05,0.04,0.1,0.09,0.15,0.13c0.02,0.01,0.03,0.03,0.05,0.04c0.05,0.04,0.1,0.09,0.15,0.13
	c0.01,0.01,0.03,0.03,0.05,0.04c0.05,0.04,0.1,0.09,0.15,0.13c0.01,0.01,0.03,0.03,0.04,0.04c0.05,0.05,0.1,0.09,0.16,0.14
	c0.01,0.01,0.03,0.02,0.04,0.03c0.05,0.05,0.11,0.09,0.16,0.14c0.01,0.01,0.02,0.02,0.03,0.03c0.06,0.05,0.12,0.1,0.17,0.15
	c0,0,0.01,0.01,0.02,0.02c0.06,0.05,0.13,0.11,0.19,0.17l0,0c0.59,0.51,1.18,1.03,1.77,1.55c0,0,0,0,0.01,0.01
	c0.06,0.05,0.12,0.11,0.19,0.16c0,0,0.01,0.01,0.02,0.01c0.06,0.05,0.12,0.1,0.18,0.16c0.01,0.01,0.01,0.01,0.02,0.02
	c0.06,0.05,0.11,0.1,0.17,0.15c0.01,0.01,0.02,0.02,0.04,0.03c0.05,0.04,0.1,0.09,0.16,0.14c0.01,0.01,0.03,0.03,0.04,0.04
	c0.05,0.04,0.1,0.09,0.15,0.13c0.01,0.01,0.03,0.03,0.04,0.04c0.05,0.04,0.1,0.09,0.15,0.14c0.01,0.01,0.02,0.02,0.04,0.03
	c0.05,0.05,0.11,0.09,0.16,0.14c0.02,0.01,0.02,0.02,0.04,0.03c0.05,0.05,0.1,0.09,0.16,0.14c0.01,0.01,0.03,0.02,0.04,0.03
	c0.05,0.05,0.1,0.09,0.16,0.14c0.01,0.01,0.03,0.02,0.04,0.03c0.05,0.05,0.11,0.1,0.16,0.14c0.01,0.01,0.02,0.02,0.03,0.03
	c0.05,0.05,0.11,0.09,0.16,0.14c0.01,0.01,0.03,0.02,0.04,0.03c0.05,0.05,0.11,0.1,0.16,0.14c0.01,0.01,0.02,0.01,0.03,0.02
	c0.05,0.05,0.11,0.1,0.17,0.15c0.01,0.01,0.02,0.02,0.03,0.03c0.06,0.05,0.11,0.1,0.17,0.15c0.01,0.01,0.02,0.01,0.02,0.02
	c0.06,0.05,0.11,0.1,0.17,0.15c0.01,0.01,0.02,0.02,0.03,0.03c0.06,0.05,0.12,0.1,0.18,0.16c0,0,0.01,0.01,0.01,0.01
	c0.06,0.06,0.13,0.11,0.19,0.17l0,0c0.26,0.23,0.52,0.46,0.78,0.69c0.01,0.01,0.02,0.02,0.03,0.02c0.06,0.05,0.11,0.1,0.16,0.15
	c0.01,0.01,0.03,0.03,0.04,0.04c0.05,0.04,0.1,0.09,0.15,0.13c0.02,0.02,0.04,0.04,0.06,0.06c0.04,0.04,0.09,0.08,0.13,0.12
	c0.02,0.02,0.04,0.04,0.06,0.05c0.04,0.04,0.09,0.08,0.13,0.12c0.02,0.02,0.04,0.04,0.06,0.06c0.04,0.04,0.09,0.08,0.13,0.12
	c0.02,0.02,0.05,0.04,0.07,0.07c0.04,0.03,0.07,0.07,0.11,0.1c0.03,0.03,0.06,0.05,0.09,0.08c0.04,0.03,0.07,0.06,0.11,0.1
	c0.03,0.03,0.05,0.05,0.09,0.08c0.03,0.03,0.07,0.06,0.1,0.09c0.03,0.03,0.06,0.05,0.08,0.08c0.04,0.03,0.07,0.07,0.11,0.1
	c0.03,0.03,0.06,0.05,0.08,0.08c0.03,0.03,0.07,0.06,0.1,0.09c0.03,0.03,0.06,0.05,0.09,0.08c0.03,0.03,0.07,0.06,0.1,0.09
	c0.03,0.03,0.06,0.05,0.09,0.08c0.03,0.03,0.06,0.06,0.09,0.09c0.03,0.03,0.06,0.06,0.1,0.09c0.03,0.03,0.06,0.06,0.1,0.09
	c0.03,0.03,0.06,0.06,0.1,0.09c0.03,0.03,0.06,0.05,0.09,0.08c0.04,0.03,0.07,0.06,0.11,0.1c0.03,0.02,0.05,0.05,0.08,0.07
	c0.04,0.03,0.07,0.07,0.11,0.1c0.03,0.02,0.05,0.05,0.08,0.07c0.04,0.03,0.07,0.07,0.11,0.1c0.03,0.02,0.05,0.05,0.08,0.07
	c0.04,0.03,0.08,0.07,0.11,0.1c0.02,0.02,0.04,0.04,0.06,0.06c0.04,0.04,0.08,0.07,0.13,0.11c0.02,0.02,0.04,0.03,0.05,0.05
	c0.05,0.04,0.09,0.08,0.14,0.12c0.01,0.01,0.02,0.02,0.03,0.03c0.05,0.05,0.1,0.09,0.16,0.14c0.01,0.01,0.01,0.01,0.02,0.02
	c4.03,3.66,8.02,7.38,11.96,11.14L1477.89,566.22L1477.89,566.22z M1378.14,485.52l12.03-19l-9.5-6.02
	c-18.67-11.82-38.14-22.83-57.86-32.72l-10.05-5.04l-10.08,20.1l10.05,5.04c7.49,3.76,14.92,7.66,22.27,11.72
	c0.01,0.01,0.01,0.01,0.02,0.01c0.2,0.11,0.4,0.22,0.61,0.33c0.01,0.01,0.03,0.02,0.04,0.02c0.1,0.05,0.2,0.11,0.29,0.16l0,0
	c0.1,0.05,0.2,0.11,0.3,0.16c0.02,0.01,0.03,0.02,0.05,0.03c0.09,0.05,0.17,0.09,0.26,0.14c0.02,0.01,0.02,0.01,0.04,0.02
	c0.1,0.05,0.19,0.11,0.29,0.16c0.02,0.01,0.03,0.02,0.05,0.03c0.08,0.05,0.16,0.09,0.24,0.14c0.02,0.01,0.05,0.03,0.06,0.04
	c0.09,0.05,0.19,0.11,0.28,0.16c0.01,0.01,0.03,0.02,0.04,0.02c0.08,0.04,0.16,0.09,0.23,0.13c0.03,0.02,0.06,0.03,0.09,0.05
	c0.09,0.05,0.17,0.1,0.26,0.14c0.02,0.01,0.05,0.03,0.07,0.04c0.07,0.04,0.15,0.08,0.22,0.12c0.03,0.02,0.07,0.04,0.1,0.06
	c0.07,0.04,0.14,0.08,0.21,0.12c0.03,0.01,0.05,0.03,0.08,0.04c0.08,0.05,0.16,0.09,0.24,0.14c0.04,0.02,0.08,0.04,0.12,0.07
	c0.06,0.03,0.11,0.06,0.17,0.1c0.03,0.02,0.08,0.04,0.11,0.06c0.08,0.05,0.16,0.09,0.24,0.14c0.04,0.02,0.09,0.05,0.13,0.07
	c0.05,0.03,0.09,0.05,0.14,0.08c0.05,0.03,0.09,0.05,0.13,0.08c0.07,0.04,0.13,0.08,0.2,0.11c0.06,0.03,0.12,0.07,0.18,0.1
	c0.04,0.02,0.08,0.05,0.12,0.07c0.05,0.03,0.1,0.06,0.15,0.08c0.04,0.02,0.08,0.05,0.12,0.07c0.09,0.05,0.17,0.1,0.26,0.15
	c0.03,0.02,0.06,0.04,0.1,0.06c0.06,0.03,0.11,0.06,0.17,0.09c0.03,0.02,0.06,0.03,0.08,0.05c0.11,0.06,0.22,0.12,0.32,0.18
	c0.02,0.01,0.05,0.03,0.07,0.04c0.06,0.03,0.12,0.07,0.18,0.1c0.02,0.01,0.04,0.02,0.06,0.03c0.2,0.11,0.4,0.23,0.6,0.34
	c0.01,0.01,0.03,0.02,0.05,0.03c0.2,0.12,0.42,0.24,0.62,0.35c0,0,0.01,0.01,0.01,0.01c8.6,4.91,17.1,10.03,25.49,15.35
	L1378.14,485.52L1378.14,485.52z M1264.46,426.04l8.01-21.01l-10.51-4.01c-20.63-7.87-41.9-14.78-63.22-20.55l-10.85-2.93
	l-5.87,21.71l10.85,2.93c0.18,0.05,0.37,0.1,0.55,0.15c0.01,0,0.03,0.01,0.05,0.01c0.1,0.03,0.21,0.06,0.31,0.08l0.01,0
	c0.11,0.03,0.23,0.06,0.34,0.09c0.01,0,0.01,0,0.02,0c0.11,0.03,0.22,0.06,0.32,0.09c0.01,0,0.01,0,0.02,0.01
	c0.22,0.06,0.45,0.12,0.67,0.18c0.01,0,0.02,0.01,0.04,0.01c0.22,0.06,0.45,0.12,0.67,0.18c0.01,0,0.02,0,0.02,0.01
	c0.23,0.06,0.46,0.13,0.68,0.19l0,0c0.35,0.1,0.69,0.19,1.04,0.29l0,0c0.23,0.06,0.46,0.13,0.69,0.19l0.01,0
	c0.23,0.06,0.46,0.13,0.69,0.19l0.01,0c18.57,5.22,36.9,11.28,54.93,18.15L1264.46,426.04L1264.46,426.04z M1141.21,390.38
	l3.67-22.19l-11.09-1.84c-21.75-3.6-43.96-6.15-66.02-7.58l-11.22-0.73l-1.46,22.44l10.94,0.71c21.37,1.38,42.58,3.8,63.57,7.26
	c0.01,0,0.03,0,0.04,0.01c0.19,0.03,0.37,0.06,0.57,0.09L1141.21,390.38L1141.21,390.38z M1013.33,379.84l-0.75-22.47l-11.24,0.37
	c-22.15,0.74-44.43,2.58-66.22,5.47l-11.15,1.48l2.96,22.29l11.15-1.48c2.89-0.38,5.79-0.75,8.69-1.09c0.03,0,0.06-0.01,0.08-0.01
	c0.05-0.01,0.11-0.01,0.16-0.02c0.06-0.01,0.11-0.01,0.17-0.02c0.03,0,0.05-0.01,0.08-0.01c0.07-0.01,0.14-0.02,0.21-0.02
	c0.01,0,0.02,0,0.03,0c0.08-0.01,0.15-0.02,0.23-0.03c0.01,0,0.01,0,0.02,0c18.03-2.12,36.2-3.48,54.51-4.08L1013.33,379.84
	L1013.33,379.84z M885.87,394.55l-5.19-21.88l-10.94,2.59c-21.47,5.09-42.94,11.34-63.84,18.57l-10.62,3.68l7.36,21.25l10.62-3.68
	c20.28-7.02,40.85-13.01,61.67-17.94L885.87,394.55L885.87,394.55z M763.91,434.38l-9.43-20.42l-10.21,4.71
	c-20.09,9.28-39.9,19.65-58.88,30.84l-9.69,5.71l11.42,19.37l9.41-5.55c4.62-2.72,9.27-5.39,13.96-8c0,0,0.01,0,0.01-0.01
	c0.07-0.04,0.13-0.07,0.2-0.11c0.01-0.01,0.02-0.01,0.03-0.02c0.07-0.04,0.13-0.07,0.19-0.11c0.01-0.01,0.02-0.01,0.03-0.01
	c0.06-0.03,0.12-0.07,0.19-0.1c0.01-0.01,0.02-0.01,0.04-0.02c0.06-0.03,0.12-0.07,0.18-0.1c0.01-0.01,0.02-0.01,0.03-0.02
	c0.06-0.03,0.12-0.07,0.18-0.1c0.01-0.01,0.02-0.01,0.03-0.02c0.07-0.04,0.12-0.07,0.19-0.11c0.01,0,0.02-0.01,0.02-0.01
	c0.06-0.03,0.13-0.07,0.19-0.1c0.01-0.01,0.02-0.01,0.03-0.02c0.07-0.04,0.12-0.07,0.19-0.1c0.01-0.01,0.02-0.01,0.03-0.01
	c0.06-0.03,0.12-0.07,0.19-0.1c0.01-0.01,0.02-0.01,0.04-0.02c0.07-0.04,0.13-0.07,0.19-0.11c0.01,0,0.01-0.01,0.02-0.01
	c0.07-0.04,0.14-0.08,0.21-0.11c0,0,0.01,0,0.01,0c0.07-0.04,0.15-0.08,0.22-0.12l0,0c0.73-0.4,1.46-0.8,2.19-1.2
	c0.01-0.01,0.02-0.01,0.03-0.02c0.07-0.04,0.13-0.07,0.19-0.1c0.01-0.01,0.02-0.01,0.03-0.02c0.06-0.03,0.12-0.07,0.19-0.1
	c0.01-0.01,0.03-0.02,0.05-0.03c0.05-0.03,0.11-0.06,0.17-0.09c0.02-0.01,0.04-0.02,0.06-0.03c0.05-0.03,0.11-0.06,0.16-0.09
	c0.02-0.01,0.03-0.02,0.05-0.03c0.05-0.03,0.11-0.06,0.17-0.09c0.02-0.01,0.03-0.02,0.05-0.03c0.06-0.03,0.11-0.06,0.17-0.09
	c0.01-0.01,0.03-0.02,0.05-0.02c0.06-0.03,0.11-0.06,0.17-0.09c0.02-0.01,0.04-0.02,0.05-0.03c0.05-0.03,0.11-0.06,0.16-0.09
	c0.02-0.01,0.04-0.02,0.06-0.03c0.05-0.03,0.11-0.06,0.15-0.08c0.02-0.01,0.05-0.02,0.07-0.04c0.05-0.03,0.1-0.05,0.15-0.08
	c0.02-0.01,0.05-0.02,0.07-0.04c0.05-0.03,0.1-0.05,0.14-0.08c0.03-0.01,0.05-0.03,0.08-0.04c0.04-0.02,0.09-0.05,0.14-0.07
	c0.03-0.01,0.05-0.03,0.08-0.04c0.05-0.03,0.09-0.05,0.14-0.08c0.03-0.01,0.05-0.03,0.08-0.04c0.05-0.03,0.1-0.05,0.15-0.08
	c0.02-0.01,0.04-0.02,0.06-0.03c0.05-0.03,0.1-0.06,0.16-0.08c0.02-0.01,0.04-0.02,0.07-0.04c0.05-0.03,0.1-0.06,0.16-0.08
	c0.02-0.01,0.04-0.02,0.06-0.03c0.05-0.03,0.11-0.06,0.16-0.09c0.02-0.01,0.04-0.02,0.06-0.03c0.06-0.03,0.11-0.06,0.17-0.09
	c0.01-0.01,0.03-0.02,0.04-0.02c0.05-0.03,0.11-0.06,0.17-0.09c0.02-0.01,0.04-0.02,0.06-0.03c0.07-0.04,0.13-0.07,0.21-0.11
	c0,0,0,0,0.01,0c0.52-0.28,1.03-0.55,1.54-0.82c0.01-0.01,0.02-0.01,0.03-0.02c0.06-0.03,0.13-0.07,0.19-0.1
	c0.01,0,0.01-0.01,0.02-0.01c0.07-0.04,0.13-0.07,0.2-0.11c0.01,0,0.02-0.01,0.03-0.01c0.06-0.03,0.13-0.07,0.2-0.1
	c0.01,0,0.01-0.01,0.02-0.01c0.06-0.03,0.13-0.07,0.2-0.1c0.01-0.01,0.02-0.01,0.04-0.02c0.06-0.03,0.12-0.06,0.18-0.1
	c0.01-0.01,0.02-0.01,0.04-0.02c0.06-0.03,0.12-0.06,0.18-0.1c0.02-0.01,0.03-0.02,0.04-0.02c0.06-0.03,0.12-0.06,0.18-0.1
	c0.01-0.01,0.02-0.01,0.03-0.02c0.06-0.03,0.12-0.06,0.18-0.09c0.02-0.01,0.03-0.02,0.05-0.02c0.06-0.03,0.12-0.06,0.18-0.09
	c0.01-0.01,0.02-0.01,0.04-0.02c0.06-0.03,0.12-0.06,0.19-0.1c0.01-0.01,0.02-0.01,0.03-0.02c0.06-0.03,0.13-0.07,0.19-0.1
	c0.01,0,0.02-0.01,0.03-0.01c0.06-0.03,0.13-0.07,0.19-0.1c0.01-0.01,0.02-0.01,0.03-0.02c0.06-0.03,0.13-0.07,0.19-0.1
	c0.01-0.01,0.02-0.01,0.03-0.02c0.06-0.03,0.13-0.07,0.19-0.1c0.01,0,0.02-0.01,0.03-0.01c0.06-0.03,0.13-0.07,0.2-0.1
	c0.01,0,0.02-0.01,0.02-0.01c0.07-0.04,0.13-0.07,0.2-0.1c0.01,0,0.02-0.01,0.02-0.01c0.07-0.04,0.14-0.07,0.21-0.11
	c0,0,0.01,0,0.01-0.01c9.47-4.96,19.09-9.69,28.84-14.18L763.91,434.38L763.91,434.38z M652.25,497.58l-13.3-18.13l-9.07,6.65
	c-17.75,13.02-35.1,27.13-51.56,41.93l-8.36,7.52l15.03,16.72l8.14-7.32c2.63-2.37,5.28-4.71,7.95-7.03
	c0.01-0.01,0.01-0.01,0.02-0.02c0.05-0.05,0.11-0.09,0.16-0.14c0.01-0.01,0.03-0.02,0.04-0.04c0.05-0.04,0.1-0.08,0.14-0.12
	c0.02-0.01,0.04-0.03,0.05-0.05c0.04-0.04,0.09-0.08,0.13-0.11c0.02-0.02,0.05-0.04,0.07-0.06c0.04-0.04,0.08-0.07,0.12-0.1
	c0.02-0.02,0.05-0.04,0.07-0.06c0.03-0.03,0.08-0.07,0.11-0.1c0.03-0.03,0.06-0.05,0.09-0.08c0.03-0.03,0.06-0.05,0.09-0.08
	c0.03-0.03,0.07-0.06,0.11-0.09c0.03-0.02,0.05-0.04,0.08-0.07c0.04-0.03,0.08-0.07,0.12-0.1c0.02-0.02,0.04-0.04,0.06-0.05
	c0.04-0.04,0.09-0.07,0.13-0.11c0.02-0.01,0.04-0.03,0.05-0.05c0.05-0.04,0.1-0.08,0.14-0.12c0.01-0.01,0.02-0.02,0.03-0.03
	c0.05-0.04,0.1-0.09,0.16-0.13c0.01-0.01,0.02-0.02,0.03-0.02c0.06-0.05,0.11-0.1,0.17-0.14l0.01-0.01
	c12.92-11.15,26.23-21.75,39.93-31.8L652.25,497.58L652.25,497.58z M500.07,648.45l6.62-8.87c1.63-2.18,3.27-4.36,4.93-6.52
	c0-0.01,0.01-0.01,0.01-0.01c0.05-0.06,0.09-0.12,0.14-0.19c0,0,0.01-0.01,0.01-0.01c0.05-0.06,0.1-0.12,0.14-0.18
	c0,0,0.01-0.01,0.01-0.01c0.05-0.06,0.09-0.12,0.14-0.18c0-0.01,0.01-0.01,0.01-0.02c0.04-0.06,0.09-0.12,0.13-0.17
	c0.01-0.01,0.02-0.02,0.02-0.03c0.04-0.06,0.09-0.11,0.13-0.17c0.01-0.01,0.02-0.02,0.02-0.03c0.04-0.06,0.09-0.11,0.13-0.17
	c0.01-0.01,0.02-0.02,0.02-0.03c0.04-0.06,0.09-0.11,0.13-0.17c0.01-0.01,0.02-0.02,0.02-0.03c0.04-0.05,0.08-0.11,0.12-0.16
	c0.01-0.01,0.02-0.03,0.03-0.04c0.04-0.05,0.08-0.11,0.12-0.16c0.01-0.01,0.02-0.02,0.03-0.04c0.04-0.06,0.08-0.11,0.13-0.16
	c0.01-0.01,0.02-0.02,0.02-0.03c0.04-0.06,0.08-0.11,0.13-0.17c0.01-0.01,0.02-0.02,0.03-0.03c0.04-0.05,0.08-0.11,0.12-0.16
	c0.01-0.01,0.02-0.03,0.03-0.04c0.04-0.06,0.09-0.11,0.13-0.17c0.01-0.01,0.01-0.02,0.02-0.03c0.05-0.06,0.1-0.12,0.14-0.18
	c0,0,0.01-0.01,0.01-0.01c0.05-0.06,0.1-0.12,0.14-0.18c0-0.01,0.01-0.01,0.01-0.02c0.04-0.06,0.09-0.11,0.13-0.17
	c0.01-0.01,0.02-0.02,0.02-0.03c0.2-0.26,0.41-0.52,0.61-0.79c0.01-0.01,0.02-0.02,0.02-0.03c0.04-0.06,0.08-0.11,0.13-0.16
	c0.01-0.02,0.03-0.03,0.04-0.05c0.04-0.05,0.08-0.1,0.11-0.14c0.02-0.02,0.03-0.04,0.05-0.07c0.03-0.04,0.07-0.09,0.1-0.13
	c0.02-0.03,0.04-0.06,0.07-0.09c0.02-0.03,0.06-0.07,0.08-0.11c0.03-0.03,0.05-0.07,0.08-0.1c0.02-0.03,0.05-0.06,0.07-0.09
	c0.02-0.03,0.05-0.06,0.07-0.09c0.03-0.04,0.05-0.07,0.08-0.11c0.02-0.03,0.05-0.06,0.07-0.09c0.02-0.03,0.06-0.07,0.08-0.1
	c0.02-0.03,0.05-0.06,0.08-0.1c0.03-0.03,0.05-0.06,0.08-0.1c0.03-0.03,0.05-0.07,0.08-0.1c0.02-0.03,0.05-0.06,0.07-0.1
	c0.02-0.03,0.05-0.06,0.07-0.09c0.02-0.03,0.05-0.07,0.08-0.1c0.03-0.03,0.05-0.07,0.08-0.1c0.03-0.03,0.05-0.06,0.07-0.09
	c0.03-0.03,0.06-0.07,0.08-0.11c0.02-0.03,0.04-0.05,0.06-0.08c0.03-0.04,0.06-0.08,0.09-0.12c0.02-0.02,0.04-0.05,0.06-0.07
	c0.03-0.04,0.06-0.08,0.09-0.11c0.02-0.02,0.05-0.06,0.06-0.08c0.03-0.04,0.06-0.08,0.09-0.11c0.02-0.02,0.04-0.05,0.06-0.08
	c0.03-0.04,0.06-0.08,0.09-0.12c0.02-0.02,0.04-0.05,0.06-0.07c0.03-0.04,0.07-0.08,0.1-0.12c0.02-0.02,0.04-0.05,0.05-0.07
	c0.03-0.04,0.07-0.08,0.1-0.12c0.02-0.02,0.04-0.04,0.05-0.07c0.03-0.04,0.07-0.09,0.1-0.13c0.02-0.02,0.03-0.04,0.05-0.06
	c0.04-0.05,0.07-0.09,0.11-0.13c0.02-0.02,0.03-0.04,0.05-0.06c0.04-0.05,0.07-0.09,0.11-0.14c0.01-0.02,0.02-0.03,0.04-0.05
	c0.04-0.05,0.08-0.1,0.11-0.14c0.02-0.02,0.03-0.04,0.05-0.06c0.04-0.04,0.07-0.09,0.11-0.14c0.01-0.02,0.03-0.04,0.04-0.05
	c0.04-0.05,0.08-0.09,0.11-0.14c0.01-0.02,0.02-0.03,0.03-0.04c0.04-0.05,0.08-0.1,0.12-0.15c0,0,0.01-0.01,0.02-0.02
	c0.04-0.06,0.09-0.11,0.14-0.17c0.01-0.01,0.02-0.02,0.02-0.03c0.39-0.49,0.78-0.98,1.17-1.47c0.01-0.01,0.02-0.02,0.02-0.03
	c0.04-0.06,0.09-0.11,0.13-0.16c0.01-0.01,0.01-0.02,0.02-0.02c0.04-0.05,0.08-0.1,0.13-0.16c0.01-0.01,0.02-0.02,0.03-0.04
	c0.04-0.05,0.09-0.11,0.13-0.16c0.01-0.01,0.01-0.02,0.02-0.02c0.04-0.05,0.08-0.1,0.12-0.16c0.01-0.01,0.02-0.03,0.03-0.04
	c0.04-0.05,0.08-0.1,0.12-0.15c0.01-0.02,0.02-0.03,0.04-0.04c0.04-0.05,0.08-0.1,0.12-0.14c0.01-0.02,0.03-0.03,0.04-0.05
	c0.04-0.05,0.08-0.1,0.12-0.14c0.01-0.01,0.03-0.03,0.04-0.04c0.04-0.05,0.07-0.09,0.11-0.14c0.02-0.02,0.03-0.04,0.05-0.06
	c0.04-0.05,0.07-0.09,0.11-0.14c0.02-0.02,0.03-0.03,0.04-0.05c0.04-0.05,0.08-0.09,0.11-0.14c0.01-0.02,0.03-0.03,0.04-0.05
	c0.04-0.05,0.08-0.1,0.12-0.14c0.01-0.02,0.02-0.03,0.03-0.04c0.04-0.05,0.08-0.1,0.12-0.15c0.01-0.02,0.03-0.03,0.04-0.05
	c0.04-0.05,0.08-0.09,0.11-0.14c0.01-0.02,0.03-0.03,0.04-0.05c0.04-0.05,0.08-0.09,0.11-0.14c0.02-0.02,0.03-0.04,0.05-0.06
	c0.04-0.04,0.07-0.09,0.11-0.13c0.02-0.02,0.03-0.04,0.05-0.06c0.03-0.04,0.07-0.09,0.11-0.13c0.02-0.02,0.03-0.04,0.05-0.06
	c0.04-0.04,0.07-0.08,0.1-0.13c0.02-0.02,0.03-0.04,0.05-0.06c0.04-0.04,0.07-0.09,0.11-0.13c0.01-0.02,0.03-0.04,0.04-0.05
	c0.04-0.05,0.08-0.09,0.11-0.14c0.01-0.02,0.02-0.03,0.04-0.04c0.04-0.05,0.08-0.1,0.12-0.15c0.01-0.02,0.02-0.03,0.04-0.05
	c0.04-0.05,0.08-0.1,0.12-0.15c0.01-0.01,0.02-0.02,0.03-0.03c0.04-0.05,0.08-0.1,0.13-0.16c0.01-0.01,0.02-0.02,0.03-0.03
	c0.04-0.05,0.09-0.11,0.13-0.16c0.01-0.01,0.02-0.02,0.03-0.04c0.04-0.05,0.08-0.1,0.13-0.16c0.01-0.01,0.01-0.01,0.02-0.02
	c0.3-0.37,0.6-0.73,0.9-1.1c0,0,0.01-0.01,0.01-0.01c0.04-0.05,0.09-0.11,0.13-0.16c0.01-0.01,0.02-0.02,0.03-0.03
	c0.04-0.05,0.08-0.1,0.12-0.14c0.02-0.02,0.02-0.03,0.04-0.05c0.04-0.05,0.08-0.1,0.12-0.15c0.01-0.02,0.02-0.03,0.03-0.04
	c0.04-0.05,0.08-0.09,0.12-0.14c0.01-0.02,0.03-0.03,0.04-0.05c0.04-0.04,0.07-0.09,0.11-0.13c0.02-0.02,0.03-0.04,0.05-0.06
	c0.03-0.04,0.07-0.08,0.1-0.13c0.02-0.02,0.04-0.04,0.05-0.06c0.03-0.04,0.07-0.09,0.1-0.13c0.02-0.02,0.03-0.04,0.05-0.06
	c0.03-0.04,0.07-0.08,0.1-0.12c0.02-0.02,0.04-0.05,0.06-0.07c0.03-0.04,0.07-0.08,0.1-0.12c0.02-0.02,0.04-0.05,0.06-0.07
	c0.03-0.04,0.06-0.07,0.09-0.11c0.02-0.03,0.05-0.06,0.07-0.08c0.03-0.04,0.06-0.07,0.09-0.11c0.02-0.03,0.04-0.05,0.07-0.08
	c0.03-0.04,0.06-0.07,0.09-0.11c0.02-0.03,0.04-0.05,0.07-0.08c0.03-0.04,0.06-0.07,0.09-0.11c0.02-0.03,0.04-0.05,0.07-0.08
	c0.03-0.04,0.06-0.07,0.09-0.11c0.02-0.03,0.04-0.05,0.07-0.08c0.03-0.04,0.06-0.08,0.09-0.11c0.02-0.03,0.04-0.05,0.06-0.08
	c0.03-0.04,0.06-0.07,0.09-0.11c0.02-0.03,0.05-0.06,0.07-0.08c0.03-0.04,0.06-0.07,0.09-0.11c0.03-0.03,0.05-0.06,0.07-0.09
	c0.03-0.03,0.05-0.07,0.08-0.1c0.03-0.03,0.05-0.06,0.08-0.09c0.03-0.03,0.06-0.07,0.08-0.1c0.03-0.03,0.05-0.06,0.08-0.09
	c0.03-0.03,0.05-0.06,0.08-0.09c0.03-0.03,0.06-0.07,0.08-0.1c0.03-0.03,0.05-0.06,0.08-0.09c0.03-0.03,0.05-0.06,0.08-0.09
	c0.03-0.03,0.05-0.07,0.08-0.1c0.03-0.03,0.05-0.06,0.07-0.09c0.03-0.04,0.06-0.07,0.09-0.11c0.02-0.03,0.05-0.06,0.07-0.09
	c0.03-0.03,0.06-0.07,0.08-0.1c0.03-0.03,0.06-0.07,0.08-0.1c0.03-0.03,0.05-0.06,0.08-0.09c0.03-0.04,0.06-0.07,0.09-0.11
	c0.02-0.03,0.04-0.05,0.06-0.08c0.03-0.04,0.07-0.08,0.1-0.12c0.02-0.03,0.04-0.05,0.06-0.08c0.04-0.05,0.09-0.11,0.13-0.16
	c0.01-0.01,0.01-0.02,0.02-0.03c0.05-0.06,0.11-0.13,0.16-0.19c0,0,0-0.01,0.01-0.01c0.05-0.06,0.1-0.12,0.15-0.18
	c0.02-0.02,0.04-0.04,0.05-0.06c0.03-0.04,0.07-0.08,0.1-0.12c0.03-0.03,0.05-0.06,0.08-0.09c0.03-0.03,0.06-0.07,0.09-0.1
	c0.02-0.02,0.04-0.05,0.06-0.07c0.03-0.04,0.07-0.08,0.1-0.12c0.02-0.02,0.03-0.04,0.05-0.06c0.04-0.05,0.07-0.09,0.11-0.14
	c0.01-0.02,0.03-0.03,0.04-0.05c0.04-0.05,0.07-0.09,0.11-0.14c0.02-0.02,0.04-0.05,0.06-0.07c0.03-0.04,0.07-0.08,0.1-0.12
	c0.02-0.02,0.04-0.04,0.05-0.06c0.04-0.04,0.07-0.08,0.11-0.13c0.02-0.02,0.04-0.04,0.05-0.07c0.04-0.04,0.07-0.08,0.11-0.13
	c0.02-0.02,0.04-0.04,0.06-0.07c0.03-0.04,0.07-0.08,0.1-0.12c0.02-0.03,0.04-0.05,0.07-0.08c0.03-0.04,0.06-0.08,0.1-0.11
	c0.02-0.02,0.04-0.05,0.06-0.07c0.03-0.04,0.07-0.08,0.1-0.12c0.02-0.02,0.04-0.04,0.06-0.07c0.04-0.04,0.07-0.08,0.11-0.13
	c0.02-0.02,0.04-0.04,0.05-0.06c0.03-0.04,0.07-0.08,0.1-0.12c0.02-0.02,0.04-0.05,0.06-0.07c0.03-0.04,0.07-0.08,0.1-0.12
	c0.02-0.02,0.04-0.05,0.06-0.07c0.03-0.04,0.07-0.08,0.1-0.12c0.02-0.02,0.04-0.05,0.06-0.07c0.04-0.04,0.06-0.08,0.1-0.12
	c0.02-0.02,0.04-0.05,0.06-0.07c0.03-0.04,0.06-0.08,0.1-0.11c0.02-0.02,0.04-0.05,0.06-0.07c0.04-0.04,0.07-0.08,0.1-0.12
	c0.02-0.02,0.04-0.04,0.05-0.06c0.04-0.05,0.07-0.09,0.11-0.13c0.02-0.02,0.03-0.03,0.04-0.05c0.04-0.05,0.08-0.1,0.13-0.15
	c0.01-0.01,0.02-0.03,0.03-0.04c0.04-0.05,0.08-0.1,0.13-0.15c0.01-0.01,0.03-0.03,0.04-0.04c0.04-0.05,0.09-0.1,0.13-0.15
	c0.01-0.01,0.02-0.02,0.03-0.04c0.05-0.05,0.09-0.11,0.14-0.17c0.01-0.01,0.01-0.01,0.02-0.02c0.05-0.06,0.1-0.12,0.15-0.17
	c0-0.01,0.01-0.01,0.01-0.01c0.05-0.06,0.1-0.12,0.15-0.18c0,0,0.01-0.01,0.01-0.01c0.65-0.76,1.3-1.52,1.96-2.28
	c0,0,0.01-0.01,0.01-0.01c0.11-0.12,0.21-0.25,0.32-0.37l0,0c0.05-0.06,0.11-0.12,0.16-0.19c0,0,0.01-0.01,0.01-0.01
	c0.05-0.06,0.1-0.12,0.15-0.18c0-0.01,0.01-0.01,0.01-0.02c0.05-0.06,0.1-0.12,0.15-0.18c0,0,0-0.01,0.01-0.01
	c0.05-0.06,0.11-0.12,0.16-0.18c0,0,0,0,0,0c0.05-0.06,0.11-0.12,0.16-0.18c0,0,0,0,0.01-0.01c0.05-0.06,0.1-0.12,0.16-0.18
	c0,0,0.01-0.01,0.01-0.01c0.05-0.06,0.11-0.12,0.16-0.18c0,0,0,0,0-0.01c0.05-0.06,0.11-0.12,0.16-0.19c0,0,0,0,0,0
	c0.06-0.07,0.11-0.12,0.16-0.19l0,0c0.05-0.06,0.1-0.12,0.16-0.18c0-0.01,0.01-0.01,0.01-0.01c3.54-4.07,7.14-8.1,10.79-12.09
	l7.52-8.22l-16.59-15.18l-7.59,8.3c-14.94,16.34-29.2,33.56-42.37,51.2l-6.73,9.01L500.07,648.45L500.07,648.45z M435.91,759.56
	l4.8-10.17c1.32-2.79,2.65-5.56,4.01-8.33l0-0.01c0.03-0.07,0.07-0.14,0.1-0.21c0,0,0.01-0.01,0.01-0.01
	c0.03-0.06,0.06-0.13,0.09-0.19c0.01-0.01,0.01-0.02,0.02-0.03c0.03-0.06,0.06-0.13,0.09-0.19c0-0.01,0.01-0.02,0.01-0.03
	c0.03-0.06,0.06-0.12,0.09-0.18c0.01-0.01,0.02-0.04,0.02-0.05c0.03-0.06,0.05-0.11,0.08-0.17c0.01-0.02,0.02-0.04,0.03-0.06
	c0.03-0.05,0.05-0.1,0.08-0.16c0.01-0.02,0.02-0.05,0.03-0.07c0.02-0.05,0.05-0.1,0.07-0.15c0.01-0.02,0.02-0.05,0.03-0.07
	c0.02-0.05,0.05-0.1,0.07-0.15c0.01-0.03,0.03-0.05,0.04-0.08c0.02-0.05,0.05-0.09,0.07-0.14c0.01-0.03,0.03-0.05,0.04-0.08
	c0.02-0.05,0.05-0.09,0.07-0.14c0.02-0.03,0.03-0.06,0.04-0.09c0.02-0.04,0.04-0.09,0.06-0.13c0.01-0.03,0.03-0.06,0.04-0.09
	c0.02-0.04,0.04-0.09,0.06-0.13c0.02-0.03,0.03-0.07,0.05-0.1c0.02-0.04,0.04-0.08,0.06-0.12c0.02-0.03,0.03-0.07,0.05-0.1
	c0.02-0.04,0.04-0.08,0.06-0.12c0.02-0.04,0.03-0.07,0.05-0.1c0.02-0.04,0.04-0.08,0.06-0.12c0.02-0.04,0.04-0.07,0.05-0.11
	c0.02-0.04,0.04-0.07,0.06-0.11c0.02-0.04,0.04-0.08,0.06-0.12c0.02-0.03,0.03-0.07,0.05-0.1c0.02-0.04,0.04-0.08,0.06-0.12
	c0.02-0.04,0.03-0.07,0.05-0.1c0.02-0.04,0.04-0.08,0.06-0.12c0.02-0.03,0.03-0.07,0.05-0.1c0.02-0.05,0.05-0.09,0.07-0.14
	c0.01-0.03,0.02-0.05,0.04-0.08c0.03-0.06,0.06-0.13,0.1-0.19c0-0.01,0.01-0.02,0.01-0.03c0.11-0.23,0.22-0.45,0.34-0.67
	c0-0.01,0.01-0.01,0.01-0.02c0.03-0.07,0.07-0.13,0.1-0.2c0.01-0.02,0.02-0.03,0.02-0.05c0.03-0.06,0.06-0.12,0.09-0.18
	c0.01-0.01,0.01-0.03,0.02-0.04c0.03-0.06,0.06-0.12,0.09-0.18c0.01-0.02,0.02-0.03,0.02-0.05c0.03-0.05,0.06-0.12,0.09-0.17
	c0.01-0.02,0.02-0.04,0.03-0.06c0.03-0.06,0.05-0.11,0.08-0.17c0.01-0.02,0.02-0.04,0.03-0.05c0.03-0.05,0.06-0.12,0.09-0.17
	c0.01-0.02,0.02-0.03,0.03-0.05c0.03-0.06,0.06-0.11,0.09-0.17c0.01-0.02,0.02-0.03,0.03-0.05c0.03-0.06,0.06-0.11,0.09-0.17
	c0.01-0.02,0.02-0.04,0.03-0.06c0.03-0.05,0.05-0.1,0.08-0.16c0.01-0.02,0.02-0.04,0.03-0.06c0.03-0.05,0.06-0.11,0.08-0.16
	c0.01-0.02,0.02-0.04,0.03-0.06c0.03-0.05,0.06-0.12,0.09-0.17c0.01-0.02,0.02-0.03,0.02-0.05c0.03-0.06,0.06-0.12,0.09-0.17
	c0.01-0.02,0.02-0.03,0.03-0.05c0.03-0.06,0.06-0.12,0.09-0.18c0.01-0.01,0.01-0.03,0.02-0.04c0.03-0.06,0.06-0.12,0.09-0.18
	c0.01-0.02,0.02-0.03,0.02-0.05c0.03-0.06,0.06-0.12,0.09-0.18c0.01-0.01,0.01-0.02,0.02-0.03c0.03-0.06,0.06-0.13,0.1-0.19
	c0.01-0.01,0.01-0.02,0.02-0.03c0.03-0.06,0.07-0.13,0.1-0.19c0-0.01,0.01-0.02,0.01-0.02c0.03-0.07,0.07-0.14,0.11-0.21
	c0,0,0-0.01,0.01-0.01c0.08-0.15,0.15-0.29,0.23-0.44l0,0c0.61-1.19,1.22-2.38,1.84-3.57c0-0.01,0.01-0.01,0.01-0.02
	c0.04-0.07,0.07-0.14,0.11-0.21c0,0,0-0.01,0.01-0.01c0.04-0.07,0.07-0.13,0.11-0.21c0-0.01,0.01-0.01,0.01-0.02
	c0.03-0.07,0.07-0.14,0.11-0.21c0,0,0-0.01,0.01-0.01c0.04-0.07,0.07-0.14,0.11-0.21c0-0.01,0.01-0.01,0.01-0.02
	c0.04-0.07,0.07-0.14,0.11-0.2c0,0,0.01-0.01,0.01-0.01c0.04-0.07,0.07-0.14,0.11-0.21c0,0,0-0.01,0.01-0.01
	c0.04-0.07,0.07-0.14,0.11-0.21c0,0,0,0,0,0c0.04-0.07,0.07-0.14,0.11-0.21c0-0.01,0.01-0.01,0.01-0.02
	c0.04-0.07,0.07-0.14,0.11-0.21l0,0c0.08-0.15,0.15-0.3,0.23-0.44v0c0.62-1.19,1.25-2.37,1.87-3.55c0,0,0-0.01,0.01-0.01
	c0.04-0.07,0.08-0.14,0.11-0.21c0-0.01,0.01-0.01,0.01-0.02c0.04-0.07,0.07-0.13,0.11-0.2c0-0.01,0.01-0.01,0.01-0.02
	c0.04-0.07,0.07-0.13,0.11-0.2c0-0.01,0.01-0.02,0.02-0.03c0.03-0.06,0.07-0.12,0.1-0.19c0.01-0.01,0.01-0.03,0.02-0.04
	c0.03-0.06,0.06-0.11,0.09-0.17c0.01-0.02,0.02-0.04,0.03-0.05c0.03-0.06,0.06-0.11,0.09-0.17c0.01-0.02,0.02-0.03,0.03-0.05
	c0.03-0.06,0.06-0.11,0.09-0.17c0.01-0.02,0.02-0.03,0.03-0.05c0.03-0.06,0.06-0.12,0.09-0.17c0.01-0.01,0.02-0.03,0.02-0.04
	c0.03-0.06,0.06-0.12,0.09-0.17c0.01-0.02,0.02-0.03,0.03-0.05c0.03-0.06,0.06-0.12,0.1-0.18c0.01-0.01,0.01-0.02,0.02-0.04
	c0.03-0.06,0.07-0.12,0.1-0.18c0.01-0.01,0.01-0.02,0.02-0.04c0.03-0.06,0.07-0.12,0.1-0.19c0.01-0.01,0.01-0.02,0.02-0.03
	c0.03-0.06,0.07-0.12,0.1-0.18c0.01-0.01,0.02-0.03,0.02-0.05c0.04-0.07,0.07-0.13,0.1-0.19c0-0.01,0.01-0.01,0.01-0.02
	c0.04-0.07,0.07-0.14,0.11-0.2c0-0.01,0.01-0.01,0.01-0.02c0.32-0.59,0.63-1.17,0.95-1.76c0,0,0-0.01,0.01-0.01
	c0.04-0.07,0.08-0.14,0.11-0.21c0,0,0,0,0-0.01c0.04-0.07,0.08-0.14,0.11-0.21c0.01-0.02,0.02-0.04,0.03-0.06
	c0.03-0.05,0.06-0.11,0.09-0.16c0.01-0.02,0.03-0.05,0.04-0.07c0.03-0.05,0.05-0.09,0.08-0.14c0.02-0.03,0.04-0.07,0.06-0.1
	c0.02-0.04,0.04-0.08,0.06-0.11c0.02-0.04,0.04-0.08,0.06-0.12c0.02-0.03,0.03-0.06,0.05-0.09c0.02-0.04,0.04-0.08,0.07-0.12
	c0.02-0.03,0.04-0.07,0.05-0.1c0.02-0.04,0.04-0.08,0.06-0.12c0.02-0.03,0.04-0.07,0.05-0.1c0.02-0.04,0.04-0.08,0.06-0.12
	c0.02-0.04,0.04-0.07,0.06-0.1c0.02-0.04,0.04-0.08,0.06-0.12c0.02-0.03,0.04-0.06,0.05-0.1c0.02-0.04,0.04-0.08,0.07-0.12
	c0.02-0.03,0.04-0.07,0.05-0.1c0.02-0.04,0.04-0.08,0.07-0.12c0.02-0.03,0.03-0.06,0.05-0.09c0.02-0.04,0.05-0.09,0.07-0.13
	c0.01-0.03,0.03-0.05,0.04-0.08c0.03-0.05,0.05-0.1,0.08-0.15c0.01-0.02,0.02-0.04,0.03-0.06c0.03-0.05,0.06-0.1,0.09-0.16
	c0.01-0.02,0.02-0.04,0.03-0.06c0.03-0.05,0.06-0.1,0.08-0.15c0.01-0.02,0.02-0.04,0.03-0.06c0.03-0.05,0.06-0.1,0.09-0.15
	c0.01-0.02,0.02-0.04,0.03-0.06c0.03-0.05,0.06-0.11,0.09-0.16c0.01-0.01,0.02-0.03,0.02-0.04c0.03-0.06,0.06-0.11,0.09-0.17
	c0.01-0.01,0.02-0.03,0.02-0.04c0.03-0.06,0.06-0.12,0.1-0.18c0,0,0.01-0.02,0.01-0.02c0.04-0.06,0.07-0.13,0.11-0.19
	c0,0,0.01-0.01,0.01-0.02c3.63-6.56,7.38-13.05,11.24-19.46l5.79-9.64l-19.27-11.58l-5.79,9.64c-11.35,18.89-21.9,38.61-31.35,58.61
	l-4.8,10.17L435.91,759.56L435.91,759.56z M395.02,881.18l2.64-10.72c0.81-3.31,1.65-6.61,2.52-9.91c0,0,0,0,0-0.01
	c0.04-0.16,0.08-0.32,0.13-0.48c0,0,0-0.01,0-0.01c0.02-0.08,0.04-0.16,0.06-0.23c0-0.01,0-0.01,0-0.02
	c0.02-0.07,0.04-0.15,0.06-0.22c0-0.01,0.01-0.02,0.01-0.03c0.02-0.07,0.04-0.14,0.06-0.21c0-0.01,0-0.02,0.01-0.03
	c0.02-0.07,0.04-0.13,0.05-0.2c0-0.02,0.01-0.03,0.01-0.05c0.02-0.07,0.03-0.12,0.05-0.19c0.01-0.02,0.01-0.04,0.02-0.06
	c0.01-0.06,0.03-0.11,0.05-0.17c0.01-0.03,0.01-0.05,0.02-0.08c0.01-0.06,0.03-0.11,0.04-0.17c0.01-0.03,0.01-0.05,0.02-0.07
	c0.01-0.06,0.03-0.11,0.04-0.16c0.01-0.03,0.01-0.05,0.02-0.08c0.01-0.06,0.03-0.11,0.04-0.16c0.01-0.03,0.01-0.05,0.02-0.08
	c0.01-0.06,0.03-0.11,0.04-0.16c0.01-0.03,0.01-0.05,0.02-0.08c0.01-0.06,0.03-0.1,0.04-0.16c0.01-0.03,0.02-0.06,0.02-0.09
	c0.01-0.05,0.03-0.1,0.04-0.15c0.01-0.03,0.02-0.07,0.03-0.1c0.01-0.05,0.02-0.09,0.04-0.14c0.01-0.04,0.02-0.08,0.03-0.11
	c0.01-0.04,0.02-0.08,0.03-0.12c0.01-0.05,0.02-0.09,0.04-0.13c0.01-0.04,0.02-0.07,0.03-0.11c0.01-0.05,0.03-0.09,0.04-0.14
	c0.01-0.03,0.02-0.07,0.03-0.1c0.01-0.05,0.03-0.1,0.04-0.15c0.01-0.03,0.02-0.07,0.03-0.1c0.01-0.05,0.03-0.1,0.04-0.15
	c0.01-0.03,0.02-0.06,0.02-0.09c0.01-0.05,0.03-0.1,0.04-0.16c0.01-0.03,0.02-0.06,0.02-0.09c0.01-0.05,0.03-0.11,0.05-0.17
	c0.01-0.02,0.01-0.04,0.02-0.06c0.02-0.06,0.03-0.12,0.05-0.18c0.01-0.02,0.01-0.04,0.02-0.06c0.02-0.06,0.03-0.13,0.05-0.19
	c0-0.01,0.01-0.03,0.01-0.04c0.02-0.07,0.04-0.14,0.06-0.2c0-0.01,0.01-0.03,0.01-0.04c0.02-0.07,0.04-0.14,0.06-0.21
	c0-0.01,0-0.02,0.01-0.03c0.02-0.07,0.04-0.14,0.06-0.21c0-0.01,0.01-0.02,0.01-0.03c0.02-0.07,0.04-0.14,0.06-0.21
	c0-0.01,0.01-0.02,0.01-0.03c0.02-0.07,0.04-0.14,0.06-0.21c0-0.01,0.01-0.03,0.01-0.04c0.02-0.07,0.04-0.14,0.06-0.22l0-0.01
	c0.02-0.08,0.04-0.15,0.06-0.23l0-0.01c0.02-0.08,0.04-0.16,0.07-0.24l0,0c3.05-11.03,6.4-21.99,10.04-32.87l0,0
	c0.03-0.08,0.05-0.15,0.08-0.23l0-0.01c0.03-0.07,0.05-0.15,0.07-0.22c0-0.01,0-0.01,0.01-0.02c0.02-0.07,0.05-0.14,0.07-0.21
	c0-0.01,0.01-0.03,0.01-0.04c0.02-0.06,0.04-0.13,0.07-0.19c0.01-0.02,0.01-0.04,0.02-0.05c0.02-0.06,0.04-0.12,0.06-0.18
	c0.01-0.02,0.01-0.04,0.02-0.06c0.02-0.06,0.04-0.12,0.06-0.17c0.01-0.02,0.02-0.05,0.02-0.07c0.02-0.06,0.04-0.11,0.06-0.17
	c0.01-0.02,0.02-0.04,0.02-0.06c0.02-0.06,0.04-0.11,0.06-0.17c0.01-0.03,0.02-0.05,0.03-0.08c0.02-0.05,0.04-0.11,0.05-0.16
	c0.01-0.03,0.02-0.05,0.03-0.08c0.02-0.05,0.04-0.1,0.05-0.16c0.01-0.03,0.02-0.06,0.03-0.09c0.02-0.05,0.03-0.09,0.05-0.14
	c0.01-0.03,0.02-0.07,0.04-0.1c0.01-0.04,0.03-0.09,0.04-0.13c0.01-0.04,0.03-0.07,0.04-0.11c0.01-0.04,0.03-0.08,0.04-0.12
	c0.01-0.04,0.02-0.07,0.04-0.11c0.01-0.04,0.03-0.08,0.04-0.12c0.01-0.04,0.03-0.08,0.04-0.12c0.01-0.04,0.03-0.08,0.04-0.12
	c0.01-0.04,0.03-0.08,0.04-0.12s0.03-0.08,0.04-0.12c0.02-0.04,0.03-0.09,0.05-0.14c0.01-0.03,0.02-0.06,0.03-0.09
	c0.02-0.05,0.04-0.1,0.05-0.15c0.01-0.03,0.02-0.05,0.03-0.08c0.02-0.05,0.04-0.12,0.06-0.17c0.01-0.02,0.01-0.04,0.02-0.06
	c0.02-0.06,0.04-0.12,0.06-0.19c0-0.01,0.01-0.03,0.01-0.04c0.02-0.07,0.05-0.13,0.07-0.2c0-0.01,0.01-0.02,0.01-0.03
	c0.02-0.07,0.05-0.14,0.07-0.21c0-0.01,0.01-0.02,0.01-0.02c0.03-0.07,0.05-0.15,0.08-0.22c0,0,0-0.01,0-0.01
	c0.03-0.07,0.05-0.15,0.08-0.23c0,0,0-0.01,0-0.01c0.68-1.97,1.37-3.92,2.07-5.89l3.7-10.39l-21.18-7.54l-3.77,10.59
	c-7.42,20.84-13.85,42.26-19.13,63.67l-2.69,10.92L395.02,881.18L395.02,881.18z M379.21,1008.5l0.47-11.23
	c0.73-17.52,2.16-34.92,4.28-52.19l0-0.01c0.01-0.08,0.02-0.16,0.03-0.24c0-0.01,0-0.01,0-0.02c0.01-0.08,0.02-0.15,0.03-0.22
	c0-0.01,0-0.02,0-0.03c0.01-0.07,0.02-0.14,0.03-0.21c0-0.01,0-0.03,0.01-0.04c0.01-0.06,0.02-0.13,0.02-0.19
	c0-0.02,0.01-0.05,0.01-0.07c0.01-0.06,0.01-0.12,0.02-0.18c0-0.02,0.01-0.05,0.01-0.07c0.01-0.06,0.01-0.12,0.02-0.18
	c0-0.03,0.01-0.05,0.01-0.08c0.01-0.06,0.01-0.11,0.02-0.17c0-0.03,0.01-0.05,0.01-0.08c0.01-0.05,0.01-0.11,0.02-0.16
	c0-0.04,0.01-0.07,0.01-0.1c0.01-0.05,0.01-0.09,0.02-0.14c0-0.04,0.01-0.08,0.01-0.11c0.01-0.04,0.01-0.09,0.02-0.13
	c0.01-0.04,0.01-0.08,0.02-0.13c0-0.04,0.01-0.08,0.01-0.12c0.01-0.05,0.01-0.09,0.02-0.14c0-0.04,0.01-0.07,0.01-0.11
	c0.01-0.05,0.01-0.1,0.02-0.15c0-0.03,0.01-0.07,0.01-0.1c0.01-0.05,0.01-0.09,0.02-0.15c0-0.03,0.01-0.07,0.01-0.1
	c0.01-0.05,0.01-0.1,0.02-0.16c0-0.03,0.01-0.06,0.01-0.09c0.01-0.05,0.01-0.11,0.02-0.16c0-0.03,0.01-0.05,0.01-0.08
	c0.01-0.06,0.02-0.12,0.02-0.18c0-0.02,0-0.03,0.01-0.05c0.01-0.07,0.02-0.14,0.03-0.2c0-0.01,0-0.03,0.01-0.04
	c0.01-0.08,0.02-0.14,0.03-0.22c0,0,0-0.01,0-0.01c0.32-2.48,0.66-4.95,1.01-7.42l1.54-10.89l-22.26-3.16l-1.58,11.13
	c-3.09,21.77-5.12,44.04-6.04,66.18l-0.47,11.23L379.21,1008.5L379.21,1008.5z M388.59,1136.47l-1.74-11.11
	c-0.85-5.46-1.64-10.94-2.35-16.43c0-0.01,0-0.02,0-0.03c-0.01-0.07-0.02-0.15-0.03-0.22c0-0.01,0-0.02,0-0.03
	c-0.01-0.07-0.02-0.15-0.03-0.22c0-0.02,0-0.02,0-0.04c-0.01-0.07-0.02-0.14-0.03-0.21c0-0.02,0-0.04-0.01-0.05
	c-0.01-0.06-0.02-0.13-0.02-0.19c0-0.03-0.01-0.05-0.01-0.07c-0.01-0.06-0.02-0.12-0.02-0.18c0-0.03-0.01-0.04-0.01-0.07
	c-0.01-0.06-0.02-0.12-0.02-0.18c0-0.03-0.01-0.05-0.01-0.08c-0.01-0.06-0.01-0.11-0.02-0.17c0-0.03-0.01-0.06-0.01-0.09
	c-0.01-0.05-0.01-0.1-0.02-0.15c-0.01-0.04-0.01-0.07-0.01-0.11c-0.01-0.05-0.01-0.09-0.02-0.13c-0.01-0.04-0.01-0.07-0.01-0.11
	c-0.01-0.04-0.01-0.09-0.02-0.13c-0.01-0.04-0.01-0.09-0.02-0.13c-0.01-0.04-0.01-0.08-0.01-0.12c-0.01-0.05-0.01-0.09-0.02-0.14
	c0-0.04-0.01-0.07-0.01-0.1c-0.01-0.05-0.01-0.1-0.02-0.15c0-0.03-0.01-0.07-0.01-0.1c-0.01-0.05-0.01-0.09-0.02-0.14
	c0-0.04-0.01-0.07-0.01-0.11c-0.01-0.04-0.01-0.1-0.02-0.14c0-0.04-0.01-0.07-0.01-0.11c-0.01-0.05-0.01-0.1-0.02-0.15
	c0-0.03-0.01-0.06-0.01-0.09c-0.01-0.06-0.01-0.12-0.02-0.17c0-0.02-0.01-0.05-0.01-0.07c-0.01-0.06-0.01-0.12-0.02-0.17
	c0-0.03-0.01-0.05-0.01-0.08c-0.01-0.06-0.01-0.12-0.02-0.18c0-0.02,0-0.04-0.01-0.06c-0.01-0.06-0.02-0.13-0.02-0.2
	c0-0.02,0-0.03-0.01-0.05c-0.01-0.07-0.02-0.14-0.02-0.2c0-0.02,0-0.03-0.01-0.05c-0.01-0.06-0.02-0.13-0.02-0.19
	c0-0.02,0-0.04-0.01-0.06c-0.01-0.07-0.02-0.13-0.02-0.2c0-0.01,0-0.03-0.01-0.04c-0.01-0.07-0.02-0.13-0.03-0.21
	c0-0.01,0-0.03,0-0.04c-0.01-0.07-0.02-0.14-0.03-0.21c0-0.01,0-0.02,0-0.03c-0.01-0.07-0.02-0.14-0.03-0.21c0-0.01,0-0.02,0-0.03
	c-0.01-0.07-0.02-0.15-0.03-0.22c0-0.01,0-0.02,0-0.02c-0.01-0.07-0.02-0.16-0.03-0.23c0,0,0-0.01,0-0.01
	c-0.01-0.08-0.02-0.16-0.03-0.24c0,0,0,0,0,0c-0.01-0.08-0.02-0.16-0.03-0.23c0-0.01,0-0.02,0-0.02c-0.01-0.08-0.02-0.15-0.03-0.24
	l0,0c-1.56-13.22-2.71-26.53-3.45-39.9l-0.62-11.14l-22.45,1.25l0.62,11.23c1.23,22.12,3.58,44.35,6.97,66.09l1.73,11.11
	L388.59,1136.47L388.59,1136.47z M423.21,1260.01l-3.92-10.54c0,0,0,0,0,0c-0.03-0.07-0.06-0.15-0.08-0.23c0,0,0-0.01,0-0.01
	c-7.49-20.16-13.94-40.61-19.34-61.32l-2.76-10.56l-21.76,5.69l2.84,10.88c5.58,21.33,12.31,42.66,20.03,63.39l3.92,10.54
	L423.21,1260.01L423.21,1260.01z M481.65,1374.23l-5.89-9.49c-0.01-0.01-0.02-0.03-0.02-0.03l-0.02-0.03c0-0.01-0.01-0.01-0.01-0.02
	c-0.04-0.06-0.08-0.13-0.12-0.19c0,0-0.01-0.01-0.01-0.01c-0.04-0.07-0.08-0.13-0.13-0.2c0,0,0,0,0,0
	c-0.09-0.14-0.17-0.28-0.26-0.42c0,0,0,0,0-0.01c-8.48-13.71-16.43-27.74-23.87-42.09c-0.01-0.01-0.01-0.02-0.02-0.03
	c-0.03-0.06-0.06-0.12-0.09-0.18c-0.01-0.02-0.02-0.04-0.03-0.05c-0.03-0.05-0.06-0.11-0.08-0.16c-0.01-0.02-0.02-0.05-0.04-0.07
	c-0.02-0.04-0.05-0.1-0.08-0.15c-0.02-0.03-0.03-0.06-0.05-0.09c-0.02-0.04-0.05-0.09-0.07-0.13c-0.01-0.03-0.03-0.06-0.05-0.09
	c-0.02-0.04-0.04-0.09-0.07-0.13c-0.02-0.03-0.03-0.06-0.05-0.09c-0.02-0.04-0.05-0.09-0.07-0.13c-0.02-0.03-0.03-0.06-0.05-0.09
	c-0.02-0.04-0.05-0.09-0.07-0.13c-0.02-0.03-0.03-0.07-0.05-0.1c-0.02-0.04-0.04-0.08-0.06-0.11c-0.02-0.04-0.04-0.07-0.06-0.11
	c-0.02-0.04-0.04-0.07-0.05-0.11c-0.02-0.04-0.04-0.08-0.06-0.12c-0.02-0.03-0.03-0.06-0.05-0.09c-0.02-0.04-0.04-0.09-0.07-0.13
	c-0.01-0.03-0.03-0.06-0.04-0.08c-0.02-0.05-0.05-0.1-0.07-0.14c-0.01-0.02-0.02-0.05-0.04-0.07c-0.03-0.05-0.05-0.1-0.08-0.15
	c-0.01-0.03-0.02-0.05-0.04-0.07c-0.03-0.05-0.05-0.1-0.08-0.15c-0.01-0.02-0.02-0.04-0.03-0.06c-0.03-0.05-0.05-0.1-0.08-0.15
	c-0.01-0.02-0.02-0.04-0.03-0.06c-0.03-0.06-0.06-0.11-0.09-0.17c0,0-0.01-0.02-0.01-0.02c-0.03-0.07-0.07-0.13-0.1-0.2l0-0.01
	c-1.63-3.19-3.23-6.4-4.81-9.62l-4.94-10.1l-20.2,9.89l4.94,10.1c9.72,19.86,20.55,39.43,32.17,58.17l5.93,9.55L481.65,1374.23
	L481.65,1374.23z M561.62,1474.57l-7.7-8.19c-0.9-0.95-1.79-1.91-2.68-2.86l0,0c-0.05-0.06-0.11-0.12-0.16-0.18l0,0
	c-0.05-0.06-0.11-0.12-0.16-0.18l-0.01-0.01c-0.05-0.06-0.1-0.11-0.16-0.17c-0.01-0.01-0.01-0.01-0.02-0.02
	c-0.05-0.05-0.1-0.11-0.15-0.16c-0.01-0.01-0.02-0.02-0.02-0.03c-0.05-0.05-0.1-0.11-0.15-0.16c-0.01-0.01-0.01-0.01-0.02-0.02
	c-0.05-0.05-0.1-0.11-0.15-0.16c-0.01-0.01-0.01-0.01-0.02-0.02c-0.05-0.05-0.1-0.11-0.15-0.16c-0.01-0.01-0.01-0.01-0.02-0.02
	c-0.05-0.05-0.1-0.11-0.15-0.16c-0.01-0.01-0.01-0.01-0.02-0.02c-0.05-0.05-0.1-0.11-0.15-0.16c0,0-0.01-0.01-0.01-0.02
	c-0.05-0.05-0.1-0.11-0.15-0.16c-0.01-0.01-0.01-0.01-0.02-0.03c-0.05-0.05-0.1-0.1-0.14-0.16c0,0-0.01-0.01-0.02-0.02
	c-0.05-0.05-0.1-0.11-0.15-0.16c-0.01-0.01-0.02-0.02-0.02-0.03c-0.05-0.05-0.1-0.11-0.15-0.16l0,0c-0.6-0.65-1.19-1.3-1.78-1.95
	c-0.01-0.02-0.02-0.02-0.03-0.04c-0.04-0.05-0.08-0.09-0.12-0.14c-0.01-0.02-0.03-0.03-0.04-0.05c-0.04-0.04-0.08-0.09-0.12-0.13
	c-0.02-0.02-0.03-0.03-0.05-0.05c-0.04-0.04-0.07-0.08-0.11-0.12c-0.02-0.02-0.04-0.04-0.06-0.07c-0.03-0.03-0.06-0.07-0.09-0.1
	c-0.02-0.03-0.06-0.06-0.08-0.09c-0.03-0.03-0.06-0.06-0.09-0.09c-0.02-0.03-0.05-0.06-0.08-0.08c-0.03-0.04-0.06-0.07-0.1-0.11
	c-0.02-0.02-0.05-0.05-0.07-0.08c-0.03-0.03-0.06-0.07-0.09-0.1c-0.02-0.03-0.05-0.05-0.07-0.08c-0.03-0.04-0.06-0.07-0.09-0.1
	c-0.02-0.03-0.05-0.05-0.07-0.08c-0.03-0.04-0.07-0.07-0.1-0.11c-0.02-0.03-0.04-0.04-0.06-0.07c-0.03-0.04-0.07-0.08-0.1-0.11
	c-0.02-0.02-0.05-0.05-0.07-0.07c-0.03-0.03-0.06-0.07-0.09-0.1c-0.03-0.03-0.05-0.05-0.08-0.08c-0.03-0.03-0.06-0.06-0.09-0.09
	c-0.03-0.03-0.06-0.06-0.09-0.09c-0.03-0.03-0.05-0.06-0.08-0.09c-0.03-0.03-0.05-0.06-0.08-0.09c-0.03-0.03-0.06-0.06-0.08-0.09
	c-0.03-0.03-0.05-0.06-0.08-0.09c-0.03-0.03-0.06-0.06-0.09-0.1c-0.03-0.03-0.06-0.06-0.08-0.09c-0.03-0.03-0.05-0.06-0.08-0.09
	c-0.03-0.03-0.06-0.07-0.09-0.1c-0.03-0.03-0.05-0.06-0.08-0.08c-0.03-0.03-0.05-0.06-0.08-0.09c-0.03-0.03-0.06-0.06-0.08-0.09
	c-0.03-0.03-0.05-0.06-0.08-0.09c-0.03-0.03-0.06-0.06-0.08-0.09c-0.03-0.03-0.06-0.07-0.09-0.1c-0.03-0.03-0.05-0.06-0.08-0.08
	c-0.03-0.03-0.06-0.07-0.09-0.1c-0.02-0.03-0.05-0.06-0.07-0.08c-0.03-0.03-0.06-0.06-0.09-0.1c-0.03-0.03-0.05-0.06-0.08-0.09
	c-0.03-0.03-0.06-0.07-0.09-0.1c-0.02-0.03-0.05-0.05-0.07-0.08c-0.03-0.04-0.07-0.08-0.1-0.11c-0.02-0.02-0.04-0.05-0.06-0.07
	c-0.03-0.03-0.06-0.07-0.09-0.1c-0.02-0.03-0.05-0.06-0.07-0.08c-0.02-0.02-0.05-0.05-0.07-0.07c-0.03-0.04-0.07-0.07-0.1-0.11
	c-0.02-0.02-0.04-0.05-0.06-0.07c-0.03-0.04-0.07-0.07-0.1-0.11c-0.11-0.12-0.22-0.25-0.33-0.37c-0.01-0.01-0.01-0.01-0.02-0.02
	c-0.05-0.06-0.1-0.11-0.15-0.17c-0.01-0.01-0.03-0.03-0.04-0.04c-0.04-0.05-0.08-0.09-0.12-0.14c-0.02-0.02-0.03-0.04-0.05-0.05
	c-0.04-0.05-0.08-0.09-0.12-0.13c-0.01-0.02-0.03-0.03-0.04-0.05c-0.04-0.05-0.08-0.09-0.12-0.14c-0.02-0.02-0.03-0.04-0.05-0.05
	c-0.04-0.05-0.08-0.09-0.12-0.13c-0.02-0.02-0.03-0.04-0.05-0.06c-0.04-0.05-0.08-0.09-0.12-0.13c-0.01-0.02-0.03-0.03-0.04-0.05
	c-0.04-0.05-0.09-0.1-0.13-0.14c-0.01-0.01-0.03-0.03-0.04-0.04c-0.04-0.05-0.08-0.1-0.13-0.14c-0.01-0.02-0.03-0.03-0.04-0.05
	c-0.04-0.05-0.08-0.09-0.12-0.13c-0.02-0.02-0.03-0.04-0.05-0.06c-0.04-0.05-0.08-0.09-0.12-0.13c-0.01-0.02-0.03-0.04-0.05-0.05
	c-0.04-0.04-0.08-0.09-0.12-0.13c-0.02-0.02-0.03-0.04-0.05-0.06c-0.04-0.04-0.07-0.08-0.11-0.13c-0.02-0.02-0.04-0.04-0.05-0.06
	c-0.04-0.04-0.07-0.08-0.11-0.12c-0.02-0.02-0.04-0.04-0.06-0.07c-0.04-0.04-0.07-0.08-0.11-0.13c-0.02-0.02-0.03-0.03-0.05-0.05
	c-0.04-0.05-0.08-0.09-0.12-0.14c-0.02-0.02-0.03-0.03-0.05-0.05c-0.04-0.05-0.08-0.09-0.12-0.13c-0.02-0.02-0.03-0.04-0.05-0.05
	c-0.04-0.05-0.08-0.09-0.12-0.13c-0.01-0.02-0.03-0.04-0.05-0.05c-0.04-0.05-0.08-0.09-0.12-0.14c-0.01-0.01-0.02-0.03-0.04-0.04
	c-0.04-0.05-0.08-0.1-0.13-0.15c-0.01-0.01-0.02-0.03-0.04-0.04c-0.04-0.05-0.09-0.1-0.13-0.15c-0.01-0.01-0.02-0.03-0.04-0.04
	c-0.04-0.05-0.09-0.1-0.13-0.15c-0.01-0.01-0.02-0.02-0.03-0.04c-0.05-0.05-0.09-0.11-0.14-0.16c-0.01-0.01-0.01-0.02-0.02-0.02
	c-0.05-0.06-0.1-0.11-0.15-0.17c-0.01-0.01-0.01-0.02-0.02-0.02c-0.05-0.06-0.1-0.12-0.15-0.17c0,0-0.01-0.01-0.01-0.01
	c-0.05-0.06-0.11-0.12-0.16-0.18c0,0,0,0,0,0c-0.88-1.01-1.76-2.02-2.64-3.03l0,0c-0.06-0.07-0.11-0.12-0.16-0.19l0,0
	c-0.05-0.06-0.11-0.12-0.16-0.19c0,0,0,0-0.01-0.01c-0.05-0.06-0.11-0.12-0.16-0.18c0,0,0,0,0,0c-0.05-0.06-0.1-0.12-0.15-0.18
	c-0.01-0.01-0.01-0.01-0.02-0.02c-0.05-0.06-0.1-0.12-0.15-0.18c0,0-0.01-0.01-0.01-0.01c-0.05-0.06-0.1-0.12-0.15-0.18
	c0,0-0.01-0.01-0.01-0.01c-0.05-0.06-0.1-0.12-0.15-0.18c0,0-0.01-0.01-0.01-0.01c-0.05-0.06-0.1-0.12-0.15-0.18
	c0-0.01-0.01-0.01-0.01-0.01c-0.05-0.06-0.11-0.12-0.16-0.18c0,0,0,0-0.01-0.01c-0.05-0.06-0.11-0.12-0.16-0.18c0,0,0,0-0.01-0.01
	c-7.58-8.83-14.89-17.84-21.96-27.03l-6.7-8.71l-17.82,13.71l6.85,8.91c13.41,17.44,27.91,34.46,43.08,50.59l7.7,8.19
	L561.62,1474.57L561.62,1474.57z M646.65,1575.62l13.04-18.32l-9.16-6.52c-1.74-1.24-3.47-2.48-5.19-3.74l0,0
	c-0.06-0.04-0.12-0.09-0.18-0.13c-0.01-0.01-0.01-0.01-0.02-0.01c-0.06-0.04-0.12-0.09-0.18-0.13l-0.01-0.01
	c-0.06-0.05-0.12-0.09-0.18-0.13c0,0-0.01-0.01-0.01-0.01c-0.06-0.05-0.12-0.09-0.19-0.14l-0.01,0c-0.06-0.05-0.13-0.09-0.19-0.14
	l-0.01-0.01c-0.13-0.09-0.26-0.19-0.39-0.28l0,0c-0.06-0.05-0.13-0.09-0.19-0.14c0,0-0.01,0-0.01-0.01
	c-0.06-0.05-0.12-0.09-0.18-0.14c0,0-0.01-0.01-0.01-0.01c-0.77-0.57-1.54-1.13-2.31-1.7c-0.01-0.01-0.02-0.01-0.03-0.02
	c-0.05-0.04-0.1-0.08-0.16-0.12c-0.02-0.01-0.03-0.02-0.04-0.03c-0.05-0.04-0.1-0.07-0.15-0.11c-0.02-0.01-0.03-0.02-0.05-0.04
	c-0.05-0.03-0.09-0.07-0.14-0.1c-0.02-0.02-0.04-0.03-0.06-0.05c-0.04-0.03-0.08-0.06-0.12-0.09c-0.03-0.02-0.06-0.04-0.08-0.06
	c-0.04-0.03-0.07-0.05-0.11-0.08c-0.03-0.02-0.06-0.04-0.09-0.06c-0.04-0.03-0.07-0.05-0.11-0.08c-0.03-0.02-0.06-0.04-0.09-0.06
	c-0.04-0.03-0.07-0.05-0.11-0.08c-0.03-0.02-0.06-0.04-0.09-0.07c-0.03-0.02-0.07-0.05-0.1-0.07c-0.03-0.02-0.07-0.05-0.1-0.07
	c-0.03-0.02-0.07-0.05-0.1-0.07c-0.03-0.02-0.06-0.05-0.1-0.07c-0.03-0.02-0.07-0.05-0.1-0.07c-0.04-0.03-0.06-0.05-0.1-0.07
	c-0.03-0.02-0.06-0.05-0.1-0.07c-0.04-0.03-0.07-0.05-0.11-0.08c-0.03-0.02-0.05-0.04-0.08-0.06c-0.04-0.03-0.08-0.06-0.12-0.09
	c-0.03-0.02-0.05-0.04-0.08-0.06c-0.04-0.03-0.08-0.06-0.12-0.09c-0.03-0.02-0.05-0.04-0.08-0.06c-0.04-0.03-0.08-0.06-0.11-0.08
	c-0.03-0.02-0.06-0.04-0.09-0.07c-0.04-0.03-0.07-0.06-0.11-0.08c-0.03-0.02-0.06-0.04-0.09-0.06c-0.04-0.03-0.08-0.06-0.11-0.08
	c-0.03-0.02-0.06-0.04-0.09-0.06c-0.04-0.03-0.07-0.05-0.11-0.08c-0.03-0.02-0.06-0.04-0.09-0.07c-0.03-0.02-0.07-0.05-0.1-0.08
	c-0.03-0.02-0.06-0.05-0.1-0.07c-0.04-0.03-0.07-0.05-0.11-0.08c-0.03-0.02-0.05-0.04-0.08-0.06c-0.04-0.03-0.08-0.06-0.12-0.09
	c-0.03-0.02-0.05-0.04-0.07-0.06c-0.04-0.03-0.08-0.06-0.13-0.1c-0.02-0.02-0.05-0.03-0.07-0.05c-0.04-0.03-0.09-0.07-0.13-0.1
	c-0.02-0.02-0.04-0.03-0.07-0.05c-0.05-0.04-0.11-0.08-0.16-0.12c-0.01-0.01-0.02-0.02-0.04-0.03c-0.06-0.05-0.13-0.09-0.19-0.14
	c0,0-0.01,0-0.01-0.01c-0.4-0.3-0.8-0.6-1.19-0.9c-0.01-0.01-0.02-0.01-0.03-0.02c-0.06-0.05-0.11-0.09-0.17-0.13
	c-0.01-0.01-0.02-0.01-0.03-0.02c-0.06-0.04-0.11-0.09-0.17-0.13c-0.01-0.01-0.03-0.02-0.04-0.03c-0.05-0.04-0.11-0.08-0.16-0.12
	c-0.02-0.01-0.03-0.02-0.04-0.03c-0.05-0.04-0.1-0.08-0.15-0.11c-0.02-0.01-0.03-0.03-0.05-0.04c-0.05-0.04-0.1-0.08-0.15-0.11
	c-0.01-0.01-0.03-0.02-0.04-0.03c-0.05-0.04-0.1-0.08-0.15-0.12c-0.02-0.01-0.03-0.02-0.05-0.04c-0.05-0.04-0.1-0.08-0.15-0.12
	c-0.02-0.01-0.03-0.02-0.05-0.03c-0.05-0.04-0.1-0.08-0.15-0.12c-0.01-0.01-0.03-0.02-0.04-0.03c-0.05-0.04-0.11-0.08-0.16-0.12
	c-0.01-0.01-0.02-0.02-0.03-0.02c-0.05-0.04-0.11-0.08-0.16-0.12c-0.01-0.01-0.02-0.02-0.04-0.03c-0.06-0.04-0.11-0.08-0.16-0.12
	c-0.01-0.01-0.02-0.02-0.03-0.03c-0.05-0.04-0.11-0.08-0.16-0.12c-0.01-0.01-0.02-0.02-0.04-0.03c-0.06-0.04-0.11-0.09-0.17-0.13
	c-0.01-0.01-0.02-0.01-0.03-0.02c-0.06-0.05-0.11-0.09-0.17-0.13c-0.01-0.01-0.02-0.01-0.03-0.02c-0.06-0.04-0.12-0.09-0.17-0.13
	c-0.01-0.01-0.02-0.01-0.03-0.02c-0.06-0.04-0.11-0.09-0.17-0.13c-0.01-0.01-0.02-0.01-0.03-0.02c-0.06-0.05-0.12-0.09-0.18-0.14
	c0,0-0.01-0.01-0.01-0.01c-0.06-0.05-0.13-0.1-0.19-0.14c0,0-0.01,0-0.01-0.01c-0.06-0.05-0.13-0.1-0.19-0.15c0,0-0.01,0-0.01-0.01
	c-0.06-0.05-0.13-0.1-0.2-0.15l0,0c-0.99-0.76-1.98-1.53-2.97-2.3c0,0,0,0,0,0c-0.06-0.05-0.13-0.1-0.19-0.15
	c-0.01,0-0.01-0.01-0.01-0.01c-0.06-0.05-0.13-0.1-0.19-0.15c0,0-0.01,0-0.01-0.01c-0.06-0.05-0.13-0.1-0.19-0.15
	c0,0-0.01-0.01-0.01-0.01c-0.06-0.05-0.13-0.1-0.19-0.15c0,0,0,0-0.01,0c-0.06-0.05-0.13-0.1-0.19-0.15c0,0-0.01,0-0.01-0.01
	c-0.06-0.05-0.13-0.1-0.19-0.15c0,0,0,0,0,0c-0.06-0.05-0.13-0.1-0.19-0.15c0,0,0,0-0.01,0c-0.13-0.1-0.26-0.2-0.39-0.31l0,0
	c-1.32-1.03-2.62-2.07-3.93-3.11c0,0,0,0-0.01,0c-0.07-0.05-0.12-0.1-0.19-0.15l0,0c-0.06-0.05-0.13-0.1-0.19-0.15c0,0,0,0-0.01,0
	c-0.06-0.05-0.12-0.1-0.19-0.15c-0.01,0-0.01-0.01-0.01-0.01c-0.06-0.05-0.12-0.09-0.18-0.14c-0.01-0.01-0.02-0.01-0.02-0.02
	c-0.06-0.05-0.11-0.09-0.17-0.14c-0.01,0-0.01-0.01-0.02-0.02c-0.06-0.05-0.12-0.09-0.18-0.14c-0.01,0-0.01-0.01-0.02-0.01
	c-0.06-0.05-0.12-0.1-0.19-0.15c0,0,0,0-0.01,0c-0.06-0.05-0.12-0.1-0.19-0.15c-0.01,0-0.01-0.01-0.01-0.01
	c-0.26-0.21-0.52-0.41-0.78-0.62l0,0c-1.04-0.84-2.08-1.68-3.12-2.53c-0.01,0-0.01-0.01-0.02-0.02c-0.06-0.05-0.12-0.1-0.18-0.14
	c-0.01,0-0.01-0.01-0.02-0.01c-0.06-0.05-0.12-0.1-0.18-0.14c-0.01-0.01-0.01-0.01-0.02-0.02c-0.05-0.04-0.11-0.09-0.17-0.14
	c-0.01-0.01-0.02-0.02-0.03-0.03c-0.05-0.04-0.11-0.09-0.16-0.13c-0.01-0.01-0.03-0.02-0.04-0.03c-0.05-0.04-0.1-0.08-0.15-0.13
	c-0.01-0.01-0.03-0.02-0.04-0.03c-0.05-0.04-0.1-0.08-0.15-0.13c-0.01-0.01-0.03-0.02-0.04-0.03c-0.05-0.04-0.1-0.08-0.15-0.13
	c-0.01-0.01-0.03-0.02-0.04-0.03c-0.05-0.04-0.1-0.08-0.14-0.12c-0.02-0.02-0.04-0.03-0.06-0.05c-0.05-0.04-0.09-0.08-0.14-0.12
	c-0.02-0.01-0.03-0.03-0.05-0.04c-0.05-0.04-0.1-0.08-0.15-0.12c-0.02-0.01-0.03-0.03-0.05-0.04c-0.05-0.04-0.09-0.08-0.14-0.12
	c-0.02-0.01-0.03-0.03-0.05-0.04c-0.05-0.04-0.1-0.08-0.15-0.12c-0.02-0.01-0.03-0.03-0.05-0.04c-0.05-0.04-0.1-0.08-0.15-0.12
	c-0.01-0.01-0.03-0.02-0.04-0.03c-0.05-0.05-0.1-0.08-0.16-0.13c-0.01-0.01-0.03-0.02-0.04-0.03c-0.05-0.04-0.11-0.09-0.16-0.13
	c-0.01-0.01-0.02-0.02-0.03-0.02c-0.05-0.04-0.1-0.08-0.15-0.12c-0.02-0.01-0.03-0.03-0.05-0.04c-0.05-0.04-0.1-0.08-0.15-0.13
	c-0.01-0.01-0.02-0.02-0.03-0.03c-0.05-0.04-0.1-0.08-0.15-0.12c-0.02-0.01-0.03-0.02-0.05-0.04c-0.05-0.05-0.12-0.1-0.17-0.14
	c0,0-0.01-0.01-0.01-0.01c-0.06-0.05-0.13-0.1-0.19-0.16c0,0,0,0,0,0c-0.2-0.16-0.38-0.32-0.58-0.48c-0.02-0.01-0.03-0.03-0.05-0.04
	c-0.04-0.04-0.1-0.08-0.14-0.12c-0.03-0.03-0.07-0.06-0.1-0.08c-0.03-0.03-0.06-0.05-0.09-0.08c-0.03-0.03-0.07-0.06-0.1-0.08
	c-0.03-0.02-0.06-0.05-0.08-0.07c-0.04-0.03-0.07-0.06-0.11-0.09c-0.03-0.02-0.06-0.05-0.09-0.07c-0.03-0.03-0.07-0.06-0.1-0.08
	c-0.03-0.02-0.06-0.05-0.09-0.07c-0.03-0.03-0.07-0.06-0.1-0.09c-0.03-0.03-0.06-0.05-0.09-0.07c-0.04-0.03-0.07-0.06-0.11-0.09
	c-0.03-0.02-0.05-0.04-0.08-0.06c-0.04-0.03-0.08-0.06-0.11-0.1c-0.03-0.02-0.05-0.04-0.08-0.06c-0.04-0.03-0.08-0.07-0.12-0.1
	c-0.02-0.02-0.04-0.04-0.07-0.05c-0.04-0.03-0.08-0.07-0.12-0.1c-0.02-0.02-0.04-0.04-0.07-0.05c-0.04-0.04-0.08-0.07-0.12-0.1
	c-0.02-0.02-0.04-0.04-0.06-0.05c-0.04-0.03-0.08-0.07-0.12-0.1c-0.02-0.02-0.04-0.04-0.07-0.06c-0.04-0.03-0.08-0.07-0.12-0.1
	c-0.02-0.02-0.04-0.04-0.06-0.05c-0.04-0.04-0.08-0.07-0.13-0.11c-0.02-0.02-0.04-0.04-0.07-0.06c-0.04-0.04-0.08-0.07-0.13-0.11
	c-0.02-0.01-0.04-0.03-0.06-0.05c-0.05-0.04-0.09-0.08-0.14-0.12c-0.02-0.01-0.03-0.02-0.04-0.04c-0.05-0.04-0.1-0.08-0.15-0.12
	c-0.01-0.01-0.03-0.02-0.04-0.03c-0.05-0.04-0.1-0.08-0.15-0.13c-0.01-0.01-0.02-0.02-0.04-0.03c-0.05-0.04-0.1-0.09-0.15-0.13
	c-0.01-0.01-0.02-0.02-0.03-0.03c-0.05-0.04-0.1-0.09-0.15-0.13c-0.01-0.01-0.02-0.02-0.03-0.03c-0.05-0.04-0.1-0.09-0.16-0.13
	c-0.01-0.01-0.01-0.01-0.02-0.02c-0.06-0.05-0.11-0.09-0.16-0.14c0,0-0.01-0.01-0.02-0.01c-2.8-2.36-5.58-4.75-8.34-7.17l-8.47-7.4
	l-14.8,16.93l8.47,7.4c16.66,14.57,34.21,28.43,52.15,41.2L646.65,1575.62L646.65,1575.62z M763.09,1639.46l9.14-20.54l-10.27-4.57
	c-1.66-0.74-3.31-1.48-4.96-2.23l-0.01-0.01c-0.07-0.03-0.13-0.06-0.2-0.09c-0.01,0-0.02-0.01-0.03-0.01
	c-0.07-0.03-0.13-0.06-0.2-0.09c-0.01,0-0.01-0.01-0.02-0.01c-0.06-0.03-0.13-0.06-0.19-0.09c-0.01-0.01-0.03-0.01-0.04-0.02
	c-0.06-0.03-0.12-0.05-0.18-0.08c-0.02-0.01-0.04-0.02-0.05-0.02c-0.05-0.03-0.11-0.05-0.16-0.07c-0.02-0.01-0.05-0.02-0.07-0.03
	c-0.05-0.02-0.1-0.05-0.15-0.07c-0.02-0.01-0.05-0.02-0.07-0.03c-0.05-0.02-0.1-0.04-0.15-0.07c-0.03-0.01-0.06-0.03-0.09-0.04
	c-0.04-0.02-0.09-0.04-0.13-0.06c-0.03-0.01-0.07-0.03-0.09-0.04c-0.04-0.02-0.09-0.04-0.13-0.06c-0.03-0.01-0.06-0.03-0.1-0.04
	c-0.04-0.02-0.09-0.04-0.13-0.06c-0.03-0.01-0.06-0.03-0.09-0.04c-0.04-0.02-0.09-0.04-0.13-0.06c-0.04-0.02-0.08-0.04-0.12-0.05
	c-0.03-0.02-0.07-0.03-0.1-0.05c-0.05-0.02-0.09-0.04-0.14-0.06c-0.03-0.01-0.06-0.03-0.08-0.04c-0.06-0.03-0.11-0.05-0.17-0.08
	c-0.02-0.01-0.04-0.02-0.06-0.03c-0.07-0.03-0.13-0.06-0.2-0.09c-0.01,0-0.01-0.01-0.02-0.01c-16.84-7.78-33.29-16.25-49.32-25.4
	l-9.5-5.42l-11.14,19.53l9.77,5.57c19.13,10.91,39.08,21,59.3,30L763.09,1639.46L763.09,1639.46z M889.88,1678.97l4.87-21.95
	l-10.98-2.44c-1.1-0.24-2.19-0.49-3.29-0.74c-14.56-3.31-28.99-7.13-43.3-11.47c0,0-0.01,0-0.01,0c-0.08-0.02-0.15-0.05-0.23-0.07
	c-0.01,0-0.02-0.01-0.03-0.01c-0.08-0.02-0.14-0.04-0.22-0.07c-0.01,0-0.01,0-0.02-0.01c-0.07-0.02-0.15-0.05-0.22-0.07
	c-0.01,0-0.02-0.01-0.04-0.01c-0.07-0.02-0.14-0.04-0.2-0.06c-0.02-0.01-0.03-0.01-0.05-0.01c-0.07-0.02-0.13-0.04-0.2-0.06
	c-0.01,0-0.01,0-0.02-0.01c-0.08-0.02-0.15-0.04-0.22-0.07c0,0-0.01,0-0.01,0c-0.07-0.02-0.15-0.05-0.22-0.07
	c-0.01,0-0.02-0.01-0.03-0.01c-0.07-0.02-0.14-0.04-0.2-0.06c-0.02-0.01-0.04-0.01-0.06-0.02c-0.06-0.02-0.12-0.04-0.18-0.06
	c-0.02,0-0.03-0.01-0.05-0.01c-0.06-0.02-0.13-0.04-0.19-0.06c-0.02-0.01-0.03-0.01-0.05-0.02c-0.06-0.02-0.13-0.04-0.19-0.06
	c-0.02-0.01-0.04-0.01-0.06-0.02c-0.06-0.02-0.12-0.04-0.18-0.06c-0.02-0.01-0.05-0.01-0.07-0.02c-0.05-0.02-0.11-0.04-0.17-0.05
	c-0.02-0.01-0.04-0.01-0.05-0.02c-0.06-0.02-0.13-0.04-0.19-0.06c-0.02-0.01-0.04-0.01-0.05-0.02c-0.06-0.02-0.12-0.04-0.18-0.06
	c-0.03-0.01-0.07-0.02-0.1-0.03c-0.04-0.01-0.09-0.03-0.13-0.04c-0.04-0.01-0.09-0.03-0.13-0.04c-0.03-0.01-0.07-0.02-0.11-0.03
	c-0.04-0.01-0.08-0.02-0.12-0.04c-0.04-0.01-0.08-0.03-0.12-0.04c-0.04-0.01-0.09-0.03-0.14-0.04c-0.03-0.01-0.06-0.02-0.1-0.03
	c-0.06-0.02-0.11-0.04-0.17-0.05c-0.02-0.01-0.05-0.01-0.07-0.02c-0.05-0.02-0.11-0.03-0.16-0.05c-0.03-0.01-0.05-0.02-0.08-0.02
	c-0.05-0.02-0.1-0.03-0.15-0.05c-0.03-0.01-0.06-0.02-0.09-0.03c-0.06-0.02-0.12-0.04-0.18-0.06c-0.01,0-0.04-0.01-0.06-0.02
	c-0.07-0.02-0.14-0.04-0.21-0.06c-0.01,0-0.02-0.01-0.03-0.01c-0.07-0.02-0.14-0.04-0.21-0.07c-0.01,0-0.02-0.01-0.03-0.01
	c-0.06-0.02-0.12-0.04-0.19-0.06c-0.02,0-0.04-0.01-0.06-0.02c-0.07-0.02-0.13-0.04-0.2-0.06c-0.01,0-0.03-0.01-0.04-0.01
	c-0.23-0.07-0.47-0.15-0.7-0.22c-0.01,0-0.01,0-0.02-0.01c-2.72-0.86-5.44-1.74-8.16-2.64l-10.68-3.53l-7.06,21.35l10.68,3.53
	c20.99,6.94,42.55,12.88,64.1,17.66L889.88,1678.97L889.88,1678.97z M1021.97,1692.42l0.44-22.48l-10.98-0.21
	c-8.16-0.16-16.3-0.46-24.42-0.92c0,0-0.01,0-0.01,0c-0.67-0.04-1.33-0.08-1.99-0.12c-0.01,0-0.01,0-0.02,0
	c-0.16-0.01-0.32-0.02-0.48-0.03c-0.01,0-0.01,0-0.02,0c-0.16-0.01-0.33-0.02-0.49-0.03c0,0,0,0-0.01,0
	c-0.16-0.01-0.33-0.02-0.5-0.03c0,0-0.01,0-0.01,0c-0.08,0-0.16-0.01-0.24-0.02c0,0-0.01,0-0.01,0c-0.08,0-0.15-0.01-0.23-0.01
	c-0.01,0-0.03,0-0.04,0c-0.07,0-0.14-0.01-0.21-0.01c-0.01,0-0.01,0-0.02,0c-0.08-0.01-0.15-0.01-0.23-0.01c-0.01,0-0.03,0-0.04,0
	c-0.07,0-0.14-0.01-0.21-0.01c-0.01,0-0.02,0-0.02,0c-0.07,0-0.15-0.01-0.22-0.01c-0.02,0-0.03,0-0.05,0
	c-0.15-0.01-0.3-0.02-0.45-0.03c-0.02,0-0.03,0-0.05,0c-0.07,0-0.13-0.01-0.2-0.01c-0.03,0-0.05,0-0.08-0.01
	c-0.06,0-0.11-0.01-0.17-0.01c-0.03,0-0.07,0-0.1-0.01c-0.05,0-0.1-0.01-0.15-0.01c-0.02,0-0.04,0-0.05,0
	c-0.06,0-0.13-0.01-0.19-0.01c-0.04,0-0.08-0.01-0.11-0.01c-0.04,0-0.1-0.01-0.14-0.01c-0.04,0-0.08-0.01-0.12-0.01
	c-0.04,0-0.09-0.01-0.13-0.01c-0.03,0-0.06,0-0.09-0.01c-0.14-0.01-0.27-0.02-0.41-0.03c-0.59-0.04-1.17-0.08-1.76-0.12
	c-0.02,0-0.04,0-0.06,0c-0.15-0.01-0.3-0.02-0.45-0.03l0,0c-0.17-0.01-0.33-0.02-0.5-0.04c-0.01,0-0.03,0-0.04,0
	c-0.07-0.01-0.14-0.01-0.22-0.02l-0.01,0c-0.08-0.01-0.16-0.01-0.24-0.02c-0.02,0-0.04,0-0.05,0c-0.07,0-0.13-0.01-0.2-0.01
	c-0.02,0-0.04,0-0.06,0c-0.06,0-0.12-0.01-0.19-0.01c-0.03,0-0.05,0-0.08-0.01c-0.06,0-0.12-0.01-0.17-0.01c-0.01,0-0.02,0-0.03,0
	c-0.07-0.01-0.15-0.01-0.22-0.02c-0.01,0-0.01,0-0.02,0c-0.16-0.01-0.32-0.02-0.48-0.04c-0.01,0-0.03,0-0.04,0
	c-0.07-0.01-0.14-0.01-0.22-0.02c-0.01,0-0.02,0-0.02,0c-0.08-0.01-0.15-0.01-0.23-0.02c-0.01,0-0.03,0-0.04,0
	c-0.07-0.01-0.14-0.01-0.21-0.02c-0.02,0-0.03,0-0.05,0c-0.07-0.01-0.13-0.01-0.2-0.02c-0.02,0-0.04,0-0.06-0.01
	c-0.07-0.01-0.13-0.01-0.19-0.01c-0.01,0-0.02,0-0.03,0c-0.08-0.01-0.15-0.01-0.22-0.02c-0.01,0-0.01,0-0.01,0
	c-0.16-0.01-0.32-0.03-0.49-0.04c-0.01,0-0.02,0-0.04,0c-0.07-0.01-0.14-0.01-0.22-0.02c-0.01,0-0.02,0-0.03,0
	c-0.07-0.01-0.15-0.01-0.22-0.02c-0.01,0-0.02,0-0.03,0c-0.08-0.01-0.15-0.01-0.23-0.02c-0.01,0-0.02,0-0.02,0
	c-0.08-0.01-0.15-0.01-0.23-0.02c-0.02,0-0.02,0-0.04,0c-0.07-0.01-0.15-0.01-0.22-0.02l0,0c-0.08-0.01-0.17-0.01-0.25-0.02l0,0
	c-0.17-0.01-0.33-0.03-0.5-0.04c-0.01,0-0.01,0-0.01,0c-0.16-0.01-0.33-0.03-0.49-0.04l0,0c-0.17-0.01-0.33-0.03-0.49-0.04
	c-0.01,0-0.01,0-0.02,0c-0.08-0.01-0.16-0.01-0.24-0.02l0,0c-0.08-0.01-0.16-0.01-0.25-0.02l-0.01,0c-0.16-0.01-0.33-0.03-0.49-0.04
	c-0.01,0-0.02,0-0.03,0c-0.07-0.01-0.15-0.01-0.22-0.02c-0.01,0-0.02,0-0.03,0c-0.07-0.01-0.15-0.01-0.22-0.02
	c-0.01,0-0.02,0-0.03,0c-0.07-0.01-0.15-0.01-0.22-0.02c-0.01,0-0.02,0-0.02,0c-0.07-0.01-0.15-0.01-0.22-0.02
	c-0.02,0-0.03,0-0.05,0c-0.07-0.01-0.14-0.01-0.21-0.02c-0.01,0-0.02,0-0.03,0c-0.07-0.01-0.15-0.01-0.22-0.02
	c-0.01,0-0.01,0-0.02,0c-0.08-0.01-0.16-0.01-0.23-0.02c-0.01,0-0.01,0-0.02,0c-0.08-0.01-0.15-0.01-0.23-0.02
	c-0.01,0-0.02,0-0.03,0c-0.07-0.01-0.15-0.01-0.22-0.02c-0.01,0-0.01,0-0.03,0c-0.08-0.01-0.15-0.01-0.23-0.02
	c-0.01,0-0.01,0-0.01,0c-0.08-0.01-0.16-0.01-0.24-0.02l-0.01,0c-0.08-0.01-0.15-0.01-0.23-0.02c-0.01,0-0.02,0-0.03,0
	c-0.08-0.01-0.15-0.01-0.23-0.02l-0.01,0c-0.08-0.01-0.16-0.01-0.24-0.02l-0.01,0c-0.08-0.01-0.16-0.01-0.25-0.02h0
	c-0.08-0.01-0.16-0.01-0.24-0.02c-0.01,0-0.01,0-0.02,0c-0.08-0.01-0.16-0.01-0.24-0.02l0,0c-0.08-0.01-0.16-0.01-0.24-0.02l-0.01,0
	c-0.08-0.01-0.16-0.01-0.24-0.02l-0.01,0c-0.08-0.01-0.16-0.01-0.24-0.02c-0.01,0-0.01,0-0.02,0c-0.66-0.06-1.33-0.12-1.99-0.19
	l-0.01,0c-0.42-0.04-0.83-0.08-1.25-0.12l0,0c-0.08-0.01-0.17-0.02-0.25-0.02l0,0c-0.08-0.01-0.17-0.02-0.25-0.02l0,0
	c-0.08-0.01-0.16-0.02-0.24-0.02l-0.01,0c-0.08-0.01-0.16-0.02-0.24-0.02l0,0c-4.1-0.41-8.19-0.85-12.28-1.34l-11.17-1.32
	l-2.65,22.33l11.17,1.32c21.82,2.59,44.12,4.12,66.28,4.55L1021.97,1692.42L1021.97,1692.42z M1154.11,1679.81l-3.98-22.13
	l-11.07,1.99c-0.01,0-0.02,0-0.02,0c-0.07,0.01-0.15,0.03-0.21,0.04c-0.01,0-0.01,0-0.02,0c-0.07,0.01-0.16,0.03-0.23,0.04
	c-0.01,0-0.01,0-0.02,0c-20.87,3.73-41.97,6.44-63.25,8.1l-11.16,0.87l1.75,22.42l11.21-0.88c22.08-1.73,44.26-4.58,65.92-8.47
	L1154.11,1679.81L1154.11,1679.81z M1281.16,1641.12l-8.32-20.89l-10.45,4.16c-7.7,3.06-15.43,5.97-23.22,8.73l0,0
	c-0.16,0.05-0.31,0.11-0.47,0.16c0,0-0.01,0-0.01,0c-0.08,0.03-0.15,0.05-0.23,0.08l-0.01,0c-0.08,0.03-0.15,0.05-0.22,0.08
	c0,0-0.01,0-0.02,0.01c-0.07,0.03-0.15,0.05-0.22,0.08c-0.01,0-0.01,0-0.01,0c-0.07,0.02-0.14,0.05-0.21,0.07
	c-0.01,0-0.02,0.01-0.03,0.01c-0.07,0.02-0.14,0.05-0.21,0.07c-0.01,0-0.02,0.01-0.03,0.01c-0.07,0.02-0.14,0.05-0.21,0.07
	c-0.01,0-0.02,0.01-0.03,0.01c-0.07,0.03-0.14,0.05-0.22,0.08c0,0-0.01,0-0.02,0.01c-0.07,0.03-0.14,0.05-0.21,0.07
	c-0.01,0-0.02,0.01-0.03,0.01c-0.07,0.02-0.14,0.05-0.21,0.07c-0.01,0-0.02,0.01-0.03,0.01c-0.07,0.02-0.14,0.05-0.21,0.07
	c-0.01,0-0.02,0.01-0.03,0.01c-0.07,0.02-0.14,0.05-0.21,0.07c-0.01,0-0.02,0.01-0.03,0.01c-0.07,0.02-0.13,0.05-0.2,0.07
	c-0.01,0.01-0.03,0.01-0.05,0.02c-0.06,0.02-0.13,0.04-0.19,0.07c-0.01,0.01-0.03,0.01-0.05,0.02c-0.06,0.02-0.13,0.04-0.19,0.07
	c-0.01,0.01-0.04,0.01-0.05,0.02c-0.06,0.02-0.12,0.04-0.18,0.06c-0.01,0.01-0.04,0.01-0.06,0.02c-0.06,0.02-0.12,0.04-0.18,0.06
	c-0.02,0.01-0.04,0.01-0.06,0.02c-0.06,0.02-0.12,0.04-0.18,0.06c-0.02,0.01-0.04,0.01-0.06,0.02c-0.06,0.02-0.11,0.04-0.17,0.06
	c-0.02,0.01-0.04,0.02-0.07,0.02c-0.06,0.02-0.11,0.04-0.17,0.06c-0.02,0.01-0.05,0.02-0.07,0.02c-0.05,0.02-0.1,0.04-0.16,0.05
	c-0.03,0.01-0.06,0.02-0.09,0.03c-0.05,0.02-0.1,0.03-0.14,0.05c-0.03,0.01-0.06,0.02-0.09,0.03c-0.05,0.02-0.1,0.03-0.15,0.05
	c-0.03,0.01-0.06,0.02-0.09,0.03c-0.05,0.02-0.1,0.03-0.15,0.05c-0.03,0.01-0.06,0.02-0.09,0.03c-0.05,0.02-0.1,0.03-0.15,0.05
	c-0.03,0.01-0.06,0.02-0.09,0.03c-0.05,0.02-0.1,0.03-0.15,0.05c-0.03,0.01-0.06,0.02-0.09,0.03c-0.05,0.02-0.09,0.03-0.14,0.05
	c-0.03,0.01-0.07,0.02-0.1,0.03c-0.05,0.02-0.09,0.03-0.14,0.05c-0.03,0.01-0.07,0.02-0.1,0.03c-0.04,0.01-0.09,0.03-0.13,0.04
	c-0.04,0.01-0.08,0.03-0.12,0.04c-0.04,0.01-0.07,0.03-0.11,0.04c-0.04,0.02-0.08,0.03-0.13,0.04c-0.04,0.01-0.07,0.02-0.11,0.04
	c-0.04,0.02-0.09,0.03-0.13,0.04c-0.03,0.01-0.07,0.02-0.1,0.03c-0.04,0.02-0.09,0.03-0.14,0.05c-0.03,0.01-0.06,0.02-0.1,0.03
	c-0.05,0.02-0.1,0.03-0.15,0.05c-0.03,0.01-0.06,0.02-0.09,0.03c-0.05,0.02-0.1,0.03-0.15,0.05c-0.03,0.01-0.06,0.02-0.08,0.03
	c-0.05,0.02-0.11,0.04-0.16,0.05c-0.02,0.01-0.05,0.02-0.07,0.03c-0.05,0.02-0.11,0.04-0.16,0.06c-0.02,0.01-0.04,0.01-0.06,0.02
	c-0.06,0.02-0.12,0.04-0.18,0.06c-0.01,0-0.02,0.01-0.04,0.01c-0.07,0.02-0.13,0.04-0.2,0.07c-0.02,0.01-0.03,0.01-0.05,0.02
	c-0.06,0.02-0.13,0.04-0.19,0.06c-0.01,0-0.03,0.01-0.04,0.01c-0.06,0.02-0.13,0.04-0.2,0.07c-0.01,0-0.03,0.01-0.04,0.01
	c-0.07,0.02-0.13,0.04-0.2,0.07c-0.01,0-0.02,0.01-0.03,0.01c-0.07,0.02-0.14,0.05-0.21,0.07c-0.01,0-0.02,0.01-0.03,0.01
	c-0.07,0.02-0.14,0.05-0.21,0.07c-0.01,0-0.01,0.01-0.02,0.01c-0.07,0.02-0.15,0.05-0.21,0.07c-0.01,0-0.01,0-0.02,0.01
	c-0.07,0.02-0.15,0.05-0.22,0.07l0,0c-0.07,0.02-0.16,0.05-0.24,0.08l0,0c-8.84,2.95-17.74,5.7-26.69,8.26l-10.44,2.99l6.19,21.62
	l10.81-3.09c21.18-6.06,42.35-13.29,62.91-21.47L1281.16,1641.12L1281.16,1641.12z M1398,1578.04l-12.29-18.83l-9.42,6.15
	c-17.92,11.69-36.42,22.49-55.47,32.36l-9.98,5.17l10.34,19.97l9.98-5.17c19.63-10.17,38.95-21.44,57.42-33.49L1398,1578.04
	L1398,1578.04z M1499.98,1493.03l-0.06-0.07c14.28-14.51,27.98-29.75,40.78-45.35l7.13-8.69l-17.39-14.26l-6.99,8.52
	c-12.16,14.83-25.01,29.16-38.55,42.98c0,0-0.01,0.01-0.01,0.01c-0.05,0.05-0.11,0.11-0.16,0.17c0,0-0.01,0.01-0.01,0.01
	c-0.05,0.05-0.1,0.11-0.16,0.16c-0.01,0.01-0.02,0.02-0.02,0.02c-0.05,0.05-0.1,0.1-0.15,0.16c-0.01,0.01-0.01,0.01-0.02,0.02
	c-0.05,0.05-0.1,0.1-0.16,0.16c-0.01,0.01-0.02,0.02-0.02,0.02c-0.05,0.05-0.1,0.1-0.15,0.15c-0.01,0.01-0.02,0.02-0.03,0.03
	c-0.05,0.05-0.09,0.09-0.14,0.14c-0.01,0.01-0.03,0.03-0.04,0.04c-0.04,0.04-0.09,0.09-0.13,0.14c-0.01,0.02-0.03,0.03-0.04,0.04
	c-0.04,0.04-0.09,0.09-0.13,0.13c-0.01,0.01-0.03,0.03-0.04,0.04c-0.05,0.05-0.08,0.09-0.13,0.13c-0.01,0.01-0.03,0.03-0.04,0.04
	c-0.04,0.04-0.09,0.09-0.13,0.13c-0.02,0.02-0.03,0.03-0.05,0.05c-0.04,0.04-0.08,0.09-0.13,0.13c-0.02,0.02-0.03,0.03-0.05,0.05
	c-0.04,0.04-0.08,0.09-0.12,0.13c-0.02,0.02-0.04,0.04-0.05,0.05c-0.04,0.04-0.08,0.08-0.12,0.12c-0.02,0.02-0.03,0.03-0.05,0.05
	c-0.04,0.04-0.08,0.08-0.12,0.12c-0.02,0.02-0.04,0.04-0.06,0.06c-0.04,0.04-0.08,0.08-0.12,0.12c-0.02,0.02-0.04,0.04-0.06,0.06
	c-0.04,0.04-0.08,0.08-0.12,0.12c-0.02,0.02-0.04,0.04-0.06,0.06c-0.04,0.04-0.08,0.08-0.12,0.12c-0.02,0.02-0.04,0.04-0.06,0.06
	c-0.04,0.04-0.08,0.08-0.12,0.12c-0.02,0.02-0.04,0.04-0.06,0.06c-0.04,0.04-0.08,0.08-0.12,0.12c-0.02,0.02-0.03,0.03-0.05,0.05
	c-0.04,0.04-0.08,0.08-0.12,0.12c-0.02,0.02-0.04,0.04-0.05,0.05c-0.04,0.04-0.08,0.08-0.12,0.12c-0.02,0.02-0.04,0.04-0.05,0.05
	c-0.04,0.04-0.08,0.08-0.12,0.12c-0.02,0.02-0.04,0.04-0.05,0.06c-0.05,0.05-0.09,0.09-0.14,0.14c-0.01,0.01-0.03,0.03-0.04,0.04
	c-0.05,0.05-0.09,0.09-0.14,0.14c-0.01,0.01-0.03,0.03-0.04,0.04c-0.05,0.05-0.09,0.09-0.14,0.14c-0.01,0.01-0.03,0.03-0.04,0.04
	c-0.06,0.06-0.12,0.12-0.18,0.18l0,0c-0.04,0.04-0.08,0.08-0.12,0.12l-1.96,1.96l-2.01,1.98c-12.76,12.54-25.96,24.5-39.58,35.87
	c0,0,0,0-0.01,0.01c-0.06,0.05-0.12,0.1-0.18,0.15c0,0-0.01,0.01-0.01,0.01c-0.05,0.04-0.11,0.09-0.16,0.13
	c-0.01,0.01-0.02,0.02-0.03,0.03c-0.05,0.04-0.1,0.08-0.15,0.12c-0.02,0.01-0.02,0.02-0.04,0.03c-0.05,0.04-0.09,0.08-0.14,0.12
	c-0.02,0.01-0.04,0.03-0.05,0.04c-0.04,0.04-0.09,0.07-0.13,0.11c-0.02,0.02-0.04,0.03-0.06,0.05c-0.04,0.03-0.08,0.07-0.12,0.1
	c-0.02,0.02-0.05,0.04-0.07,0.06c-0.04,0.03-0.08,0.07-0.12,0.1c-0.02,0.02-0.04,0.04-0.06,0.05c-0.04,0.03-0.08,0.07-0.12,0.1
	c-0.02,0.02-0.05,0.04-0.07,0.06c-0.04,0.03-0.08,0.06-0.12,0.1c-0.02,0.02-0.05,0.04-0.08,0.06c-0.04,0.03-0.07,0.06-0.11,0.09
	c-0.03,0.03-0.06,0.05-0.09,0.07c-0.03,0.03-0.06,0.05-0.1,0.08c-0.03,0.03-0.07,0.05-0.1,0.08c-0.03,0.03-0.06,0.05-0.09,0.08
	c-0.04,0.03-0.07,0.06-0.11,0.09c-0.03,0.02-0.05,0.04-0.08,0.06c-0.04,0.03-0.08,0.07-0.12,0.1c-0.02,0.02-0.04,0.04-0.07,0.05
	c-0.04,0.04-0.09,0.07-0.13,0.11c-0.02,0.02-0.04,0.03-0.06,0.05c-0.04,0.04-0.09,0.07-0.13,0.11c-0.02,0.02-0.04,0.03-0.06,0.05
	c-0.05,0.04-0.09,0.08-0.14,0.11c-0.02,0.01-0.03,0.03-0.05,0.04c-0.05,0.04-0.1,0.08-0.15,0.12c-0.01,0.01-0.02,0.02-0.04,0.03
	c-0.05,0.04-0.12,0.1-0.17,0.14c-0.01,0.01-0.01,0.01-0.02,0.01c-0.06,0.05-0.12,0.1-0.18,0.15c0,0-0.01,0-0.01,0.01
	c-1.59,1.31-3.18,2.6-4.79,3.89l-8.62,6.95l14.11,17.51l8.75-7.06c15.71-12.67,31.07-26.24,45.7-40.39l0.07,0.07l5.93-5.93
	L1499.98,1493.03L1499.98,1493.03z"/>
<path class="st2" d="M1021.39,441c-321.61,0.15-582.22,261-582.07,582.61c0.14,321.62,260.99,582.23,582.61,582.08
	c117.49-0.05,226.85-34.91,318.32-94.81c67.79-44.38,125.74-102.52,169.91-170.44c59.42-91.32,93.9-200.31,93.85-317.36
	C1603.86,701.46,1343.01,440.85,1021.39,441z M1348.93,1350.32c-87.33,87.41-203.49,135.59-327.06,135.65
	c-123.56,0.06-239.76-48.02-327.18-135.35c-87.42-87.34-135.6-203.5-135.65-327.06c-0.06-123.57,48.01-239.77,135.35-327.19
	c87.34-87.41,203.49-135.59,327.06-135.65s239.77,48.01,327.18,135.35c87.42,87.34,135.6,203.5,135.66,327.06
	C1484.35,1146.7,1436.27,1262.9,1348.93,1350.32z"/>
<path class="st2" d="M1705.92,1720.75c-23.5,23.5-54.3,35.25-85.09,35.25s-61.59-11.75-85.09-35.25L1321.8,1506.8
	c67.81-44.35,125.79-102.46,169.98-170.36l214.14,214.14C1752.92,1597.58,1752.92,1673.75,1705.92,1720.75z"/>
<g>
	<g>
		<path class="st1" d="M827.07,1376.72c-9.51-4.39-18.64-9.87-27.27-15.49c-9.63-6.28-19.26-13.26-28.46-20.3
			c-8.73-6.68-17.46-13.72-25.95-20.87c-8.05-6.78-14.81-12.78-20.27-17.94c-2.51-2.33-4.52-4.31-6.01-5.96
			c-1.49-1.64-4.1-4.88-7.65-9.73c-4.12-5.63-8.86-12.69-14.03-21.13c-5.36-8.75-10.44-17.88-15.03-27.06
			c-3.92-7.83-7.47-15.55-10.61-23.14c-3.14-7.58-5.63-14.37-7.46-20.25c-3.08-9.86-4.1-16.38-3.62-19.07
			c0.47-2.69,2.87-3.49,7.17-2.36c9.41,2.47,14.2,3.66,23.91,5.97c7.32,1.74,14.34,3.09,21.03,4.05c6.7,0.96,12.05,0.79,16.01-0.5
			c0.58-0.39,0.38-4.18-0.46-11.43c-0.83-7.25-1.77-14.23-2.86-20.88c-0.63-3.87-1.27-7.24-1.93-10.06
			c-0.66-2.82-1.22-4.27-1.7-4.33c-3.36-0.78-5.04-1.17-8.38-1.95c-3.58-0.49-7.51-0.75-11.77-0.84c-4.26-0.08-8.74-0.52-13.35-1.19
			c-9.09-1.33-19.27-5.32-27.14-9.98c-11.62-6.89-18.85-17.59-25.86-28.82c-7.79-15.29-11.06-33.01-13.97-49.57
			c-4.93-28.02-6.06-57.24-4.16-85.34c2.08-30.82,8.26-61.72,18.39-90.87c8.92-25.66,21.11-50.96,36.24-73.94
			c7.09-10.76,14.69-21.34,22.91-31.4c6.53-8,12.54-14.64,17.77-20.16c5.22-5.51,10.07-10.32,14.55-14.43
			c4.48-4.1,9.39-8.45,14.82-12.55c9.31-7.03,18.99-13.73,29.06-18.93c9.42-4.87,20.16-8.96,30.9-10.95
			c8.95-1.66,20.53-1.48,29.41,0.99c9.2,2.55,17.14,7.57,22.54,14.88c4.16,5.62,6.02,12.85,5.35,21.03
			c-0.82,9.97-2.39,19.94-3.76,29.76c-1.64,11.76-3.07,23.74-4.49,35.6c-1.47,12.26-2.91,24.56-4.38,36.83
			c-1.4,10.35-2.06,15.58-3.31,26.11c-1.89,13-2.93,29.45-10.68,40.01c-4.28,5.83-9.96,9.41-14.79,9.43
			c-7.39,0.03-16.46-0.9-25.44-0.94c-8.98-0.04-17.82,0.28-26.53,0.93c-8.71,0.66-17.21,1.36-25.47,2.09
			c-8.27,0.73-15.98,1.6-23.15,2.57c-4.54,0.61-7.73,1.34-9.59,2.13c-1.86,0.79-3.1,2.58-4,4.58c-0.51,1.12-1.75,6.01-3.12,14.6
			c-1.37,8.61-2.27,15.74-2.83,21.34c-0.2,3.35-0.28,5.03-0.44,8.4c-0.01,2.8,0.07,4.77,0.22,5.87c0.15,1.12,1.03,2.18,2.64,3.21
			c4.63,2.53,10.55,4.04,17.77,4.52c7.22,0.47,15.11,0.51,23.68,0.1c12.8-0.92,25.61-1.81,38.42-2.65
			c7.79-0.33,15.11-0.3,21.94,0.07c6.82,0.37,12.9,1.7,17.74,4.14c3.37,1.7,6,4.77,7.77,8.89c1.78,4.13,3.02,8.96,3.74,14.43
			c0.72,5.49,1.14,11.03,1.24,16.56c0.11,5.54,0.11,11.01,0.19,16.17c0.41,25.46,1.75,51.56,3.31,77.21
			c1.49,24.52,3.43,49.21,5.78,73.65c3.64,37.75,8.23,75.68,13.73,113.24c3.71,25.31,7.88,50.66,11.4,76.06
			c0.8,5.41,0.23,9.41-1.66,11.97c-1.88,2.55-4.63,4.17-8.21,4.8c-3.58,0.63-7.96,0.3-13.12-1.01
			C838.67,1381.57,833.08,1379.49,827.07,1376.72z"/>
		<path class="st3" d="M1040.07,1419.16c-10.3,0.43-21.65-0.46-31.68-2.65c-10.78-2.35-21.57-5.17-31.92-9.05
			c-9.48-3.56-19.23-7.88-28.19-12.72c-8.56-4.62-15.51-9.25-20.71-13.76c-2.46-1.97-4.25-3.85-5.38-5.6
			c-1.13-1.76-2.67-5.69-4.38-11.75c-2.51-8.87-4.3-18.28-5.76-27.45c-1.89-11.89-3.6-23.79-5.07-35.71
			c-1.25-10.12-2.22-20.37-3.01-30.55c-0.77-9.99-1.3-18.98-1.44-26.72c-0.23-13.08,0.61-21.79,2.15-25.65
			c1.54-3.85,4.97-5.6,10.29-5.24c9.76,0.67,19.53,1.24,29.3,1.72c8.89,0.44,17.43,0.46,25.58,0.1c8.15-0.36,14.84-1.77,20.03-4.2
			c0.81-0.61,1.49-5.18,2.04-13.78c0.56-8.6,0.79-16.8,0.69-24.56c-0.06-4.52-0.25-8.42-0.57-11.68c-0.32-3.25-0.77-4.89-1.33-4.9
			c-3.91-0.44-5.87-0.67-9.77-1.12c-4.23-0.07-8.96,0.18-14.13,0.71c-5.18,0.53-10.61,0.66-16.13,0.56
			c-11.29-0.22-22.15-3.83-31.85-8.36c-13.5-6.31-20.8-20.29-27.7-33.52c-7.95-19.54-10.08-42.12-12.77-62.71
			c-4.75-36.42-7.25-73.56-8.46-110.21c-1.33-40.17-0.87-80.89,1.6-120.98c2.08-33.82,5.49-68.12,11.29-101.5
			c2.51-14.45,5.33-29.01,9.35-43.19c3.04-10.74,6.5-19.15,10.2-25.41c3.7-6.25,8-10.8,12.94-13.64c4.94-2.84,10.95-5.04,18.13-6.42
			c12.96-2.49,26.26-3.17,39.43-2.36c14.93,0.91,29.7,3.89,43.49,8.27c14.61,4.64,29.26,11.36,42.28,19.36
			c12.5,7.68,24.32,17.43,34.3,28.78c6.03,6.85,11.72,17.07,13.62,26.09c2.19,10.41,3.61,21.12,4.93,31.75
			c1.54,12.47,3.08,25.02,4.36,37.47c1.31,12.74,2.33,25.61,3.23,38.46c0.51,10.74,0.75,16.15,1.17,27.08
			c0.06,12.7,1.63,30.13-5.52,40.71c-3.76,5.55-9.57,8.77-14.7,8.23c-8.67-0.91-18.72-3.01-28.04-4.1c-9.88-1.16-20-1.97-29.97-2.36
			c-9.83-0.38-19.71-0.74-29.56-1.03c-9.7-0.29-18.78-0.36-27.26-0.23c-5.37,0.08-9.11,0.48-11.23,1.17
			c-2.12,0.69-3.33,2.67-4.11,4.96c-0.42,1.25-1.13,7.03-1.59,17.22c-0.46,10.21-0.73,18.66-0.82,25.3c0.12,3.99,0.18,5.99,0.3,9.99
			c0.24,3.34,0.51,5.68,0.78,7.01c0.27,1.34,1.4,2.67,3.4,3.99c5.71,3.31,12.82,5.44,21.36,6.41c8.53,0.97,17.76,1.45,27.7,1.45
			c14.52-0.33,29.03-0.62,43.55-0.87c8.65,0.06,16.68,0.47,24.12,1.22c7.43,0.75,14.01,2.47,19.28,5.25
			c3.68,1.95,6.59,5.27,8.62,9.65c2.03,4.39,3.5,9.45,4.39,15.16c0.89,5.73,1.42,11.49,1.57,17.23c0.16,5.76,0.18,11.42,0.22,16.79
			c0.19,26.48,0.57,53.5,0.17,80.13c-0.38,25.44-1.18,51.08-2.44,76.49c-1.95,39.45-5.03,79.19-9.82,118.4
			c-3.34,27.36-7.38,54.85-13.64,81.81c-1.34,6-3.79,11.05-7.29,15.16c-3.49,4.1-7.71,7.63-12.64,10.52
			c-4.94,2.89-10.55,5.14-16.88,6.69C1053.87,1417.97,1047.13,1418.86,1040.07,1419.16z"/>
		<path class="st1" d="M1259.74,1363.47c-10.23,7.06-21.24,13.52-32.5,18.21c-9.8,4.08-20.83,7.4-32,7.88
			c-9.95,0.43-18.68-1.42-25.87-5.48c-7.19-4.06-11.51-10.84-12.04-19.54c-0.82-13.42,0.17-27.38,0.66-41.01
			c0.87-24.26,1.65-48.59,2.16-72.85c0.68-32.75,0.72-65.65,0.3-98.37c-0.49-37.98-1.71-76.16-3.44-114.13
			c-1.74-38.22-3.97-76.56-6.54-114.75c-2.2-32.72-4.68-65.51-7.17-98.24c-1.86-24.45-3.97-49.1-4.95-73.44
			c-0.48-11.94-2.24-25.99,1.5-36.84c2.22-6.43,7.95-13.31,14.85-19.49c6.89-6.17,15.85-11.86,24.14-15.75
			c8.48-3.98,18.94-7.22,28.2-8.64c8.76-1.34,19.13-1.57,27.99-0.2c8.88,1.38,17.47,4.32,25.81,8.57c8.16,4.16,16.3,9.83,23.35,15.6
			c7.32,5.98,14.55,12.54,21.37,19.15c6.8,6.59,13.4,13.25,19.56,20c6.47,7.09,12.9,14.39,18.93,21.83
			c7.84,9.68,15.45,19.63,22.65,29.75c7.79,10.96,15.21,22.59,21.74,34.33c6.38,11.48,12.49,23.35,17.62,35.29
			c5.84,13.6,10.93,27.99,14.49,42.68c3.04,12.54,3.72,20.78,2.9,24.29c-0.61,2.63-2.24,4.66-4.86,6.1
			c-2.63,1.43-5.99,2.33-10.1,2.66c-4.11,0.34-8.76,0.38-13.95,0.14c-5.19-0.24-10.66-0.74-16.39-1.5
			c-7.34-0.98-14.59-2.17-21.71-3.58c-7.12-1.41-13.57-3.6-18.11-4.63c-3.99-0.91-8.29-3.46-11.27-8.78
			c-2.98-5.32-5.86-11.47-8.7-18.42s-5.87-13.91-9.06-20.88c-3.2-6.97-7.16-12.45-11.82-16.49c-2.55-2.58-6.08-4.29-10.63-5.08
			c-3.83-0.66-7.85-0.66-12.09,0.03c-4.24,0.69-8.14,2.04-11.68,4.06c-3.54,2.02-6.45,4.61-8.72,7.75
			c-2.27,3.14-3.26,7.09-2.94,11.79c1.63,15.26,3.03,30.52,4.22,45.82c2.2,27.22,3.88,54.58,4.83,81.76
			c1.05,30.19,1.2,60.72,0.42,90.92c-0.68,26.19-2,52.6-4,78.79c-1.29,16.93-2.94,33.91-3.99,50.88c-0.12,4.36,1.53,7.12,4.89,8.29
			c3.37,1.17,7.5,1.21,12.38,0.15c4.65-1.02,9.27-2.58,13.89-4.66c4.61-2.08,8.73-4.42,12.3-6.64c2.68-1.67,4.92-3.41,6.45-5.26
			c1.53-1.85,2.85-4.15,3.96-6.91c1.1-2.75,2.18-6.14,3.22-10.16c1.03-4.03,2.31-9.02,3.79-15.01c0.82-3.27,1.22-4.91,2-8.2
			c1.83-9.24,2.21-14.8,1.36-16.54c-0.85-1.73-2.36-2.46-4.51-2.13c-0.48,0.07-1.05,0.3-1.68,0.66c-0.65,0.37-1.45,0.63-2.41,0.77
			c-0.72,0.11-1.55,0.1-2.45-0.04c-0.91-0.14-1.98-0.12-3.19,0.06c-3.93-0.52-7.79-0.95-11.58-1.28c-3.79-0.33-6.56-2.15-8.44-4.41
			c-1.26-1.51-2.03-7.14-1.79-17.03c0.3-11.97,0.9-23.94,1.47-35.9c0.7-14.68,1.23-29.41,1.61-44.09
			c0.34-13.26,0.34-26.66,0.38-39.85c0.04-12.68,0.8-26.96,7.77-38.02c4.73-7.5,16.52-11.22,24.93-10.03
			c4.65,0.6,6.96,0.91,11.57,1.51c10.86,2.52,21.93,3.81,32.95,4.89c10.8,1.06,21.72,2.08,32.5,3.65
			c9.95,1.45,18.45,3.45,25.53,5.95c7.08,2.5,11.29,6.02,12.67,10.64c3.9,14.07,4.57,28.84,4.88,43.23
			c0.51,23.32-2.46,47.2-7.2,69.75c-5.11,24.31-13.1,48.69-22.98,71.5c-9.76,22.51-21.93,44.65-35.44,65.24
			c-11.11,16.94-23.55,33.63-36.76,49.23c-7.84,9.25-15.83,18.58-24.37,27.19c-7,7.06-14.47,13.92-21.89,20.4
			C1279.48,1348.64,1269.69,1356.61,1259.74,1363.47z"/>
	</g>
</g>
</svg>
